<?xml version="1.0" standalone="no"?>
<!DOCTYPE svg PUBLIC "-//W3C//DTD SVG 1.1//EN" "http://www.w3.org/Graphics/SVG/1.1/DTD/svg11.dtd">
<svg xmlns="http://www.w3.org/2000/svg"><metadata>This SVG WebFont was generated by YouWorkForThem.
Â© 2015 Connary Fagen</metadata><defs><font horiz-adv-x="1259" id="ywftsvg"><font-face ascent="1638" bbox="-539 -539 2562 2025" cap-height="1434" descent="-410" font-family="" font-stretch="normal" font-weight="900" panose-1="0 0 10 0 0 0 0 0 0 0" underline-position="0" underline-thickness="0" unicode-range="U+0020-FB02" units-per-em="2048" x-height="1065"/><missing-glyph d="M831 1638v-2027h-643v2027h643zM676 1503h-336v-67h133v-76h-135v-66h338v66h-135v76h135v67zM541 1241h-203v-211h338v70h-135v141zM473 1171v-71h-67v71h67zM676 975h-338v-66h135v-75h-135v-68h203v143h135v66zM676 854h-68v-133h-270v-70h338v203zM676 606h-203v-112 h68v45h67v-95h-202v162h-68v-229h338v229zM676 256h-338v-229h338v229zM608 188v-94h-202v94h202zM676 -20h-338v-66h143l-143 -96v-68h338v68h-207l141 96h66v66z" horiz-adv-x="1013"/><glyph d="M176 1094q0 90 26.5 157.5t65.5 104.5t93.5 58.5t96.5 27.5t87 6q133 0 239 -53l-96 -207q-45 16 -127 16q-27 0 -44 -7t-26.5 -16.5t-13.5 -23.5t-4 -23.5t1 -24.5t1 -17v-27h189v-256h-189v-809h-299v809h-135v256h135v29zM836 1065h299v-1065h-299v1065z" glyph-name="uniFB01" horiz-adv-x="1241" unicode="fi"/><glyph d="M918 1434h303v-1434h-303v1100q-68 53 -125.5 72.5t-155.5 19.5q-92 0 -143.5 -37t-51.5 -84v-6h228v-240h-228v-825h-299v825h-102v240h102v6q0 106 52.5 185t134.5 118t158.5 56.5t148.5 17.5q145 0 281 -62v48z" glyph-name="uniFB02" horiz-adv-x="1343" unicode="fl"/><glyph d="M1403 1204q-33 0 -54.5 -12t-27.5 -37t-7 -34t-1 -34v-22h237v-242h-237v-823h-299v823h-41h-498v-823h-299v823h-135v242h135v29q0 90 26.5 157.5t65.5 104.5t93.5 58.5t96.5 27.5t87 6q145 0 276 -66l-96 -206q-78 29 -164 28q-27 0 -44 -7t-26.5 -16.5t-13.5 -23.5 t-4 -23.5t1 -24.5t1 -17v-27h498h41v29q0 90 27.5 157.5t66.5 104.5t92 58.5t95 27.5t87 6q150 0 277 -66l-96 -206q-78 28 -160 28z" glyph-name="f_f.liga" horiz-adv-x="1710" unicode="ff"/><glyph d="M831 1638v-2027h-643v2027h643zM676 1503h-336v-67h133v-76h-135v-66h338v66h-135v76h135v67zM541 1241h-203v-211h338v70h-135v141zM473 1171v-71h-67v71h67zM676 975h-338v-66h135v-75h-135v-68h203v143h135v66zM676 854h-68v-133h-270v-70h338v203zM676 606h-203v-112 h68v45h67v-95h-202v162h-68v-229h338v229zM676 256h-338v-229h338v229zM608 188v-94h-202v94h202zM676 -20h-338v-66h143l-143 -96v-68h338v68h-207l141 96h66v66z" glyph-name=".notdef" horiz-adv-x="1013"/><glyph glyph-name="glyph1" horiz-adv-x="0"/><glyph glyph-name="glyph2" horiz-adv-x="681"/><glyph glyph-name="space" horiz-adv-x="614" unicode=" "/><glyph d="M502 1434v-967h-338v967h338zM504 324v-324h-330v324h330z" glyph-name="exclam" horiz-adv-x="661" unicode="!"/><glyph d="M371 1434v-359h-299v359h299zM913 1434v-359h-299v359h299z" glyph-name="quotedbl" horiz-adv-x="1026" unicode="&quot;"/><glyph d="M1034 809h-104l-12 -184h116v-256h-135l-27 -369h-299l27 369h-135l-27 -369h-299l27 369h-74v256h92l13 184h-105v256h123l27 369h299l-27 -369h135l27 369h299l-27 -369h86v-256zM618 625l13 184h-135l-13 -184h135z" glyph-name="numbersign" horiz-adv-x="1126" unicode="#"/><glyph d="M1120 412q0 -164 -106.5 -267.5t-263.5 -140.5v-188h-256v178q-147 23 -261 111t-161 217l250 112q31 -78 106.5 -132t165.5 -54q88 0 152.5 41t64.5 123q0 78 -46 117.5t-177 86.5l-49 19q-190 68 -296 169t-106 265q0 139 100.5 237.5t256.5 129.5v182h256v-186 q113 -31 198.5 -103t132.5 -162l-268 -90q-55 109 -201 109q-68 0 -117 -33t-49 -84q0 -57 36 -92t139 -72l51 -16q448 -151 448 -477z" glyph-name="dollar" horiz-adv-x="1191" unicode="$"/><glyph d="M325.5 1444q106.5 0 180.5 -73t74 -179.5t-74 -179t-180.5 -72.5t-180 72.5t-73.5 179t73.5 179.5t180 73zM1014 1440l237 -150l-866 -1290l-238 147zM325.5 1223q-30.5 0 -30.5 -31t30.5 -31t30.5 31t-30.5 31zM1103.5 494q106.5 0 180.5 -73t74 -179.5t-74 -179 t-180.5 -72.5t-180 72.5t-73.5 179t73.5 179.5t180 73zM1104 272q-31 0 -31 -30.5t31 -30.5t31 30.5t-31 30.5z" glyph-name="percent" horiz-adv-x="1429" unicode="%"/><glyph d="M1360 244q72 0 133 47v-256q-61 -47 -166 -47q-119 0 -176 68.5t-57 181.5v-5q-109 -254 -449 -253q-137 0 -255 48t-197.5 159.5t-79.5 269.5q0 170 96 277.5t223 144.5l-285 555h975v-256h-575l252 -498h-111q-119 0 -197.5 -63.5t-78.5 -159.5q0 -106 71.5 -163.5 t190.5 -57.5q53 0 100 10t95.5 36.5t77 82t28.5 135.5v379h448v-256h-149v-271q0 -108 86 -108z" glyph-name="ampersand" horiz-adv-x="1564" unicode="&amp;"/><glyph d="M371 1434v-359h-299v359h299z" glyph-name="quotesingle" horiz-adv-x="442" unicode="'"/><glyph d="M596 1526q-207 -375 -207 -871q0 -524 207 -921h-287q-217 387 -217 921q0 508 217 871h287z" glyph-name="parenleft" horiz-adv-x="700" unicode="("/><glyph d="M92 1526h287q217 -362 217 -871q0 -535 -217 -921h-287q207 397 207 921q0 496 -207 871z" glyph-name="parenright" horiz-adv-x="700" unicode=")"/><glyph d="M936 1114l-193 -53l136 -178l-213 -131l-121 170l-121 -170l-213 131l135 178l-192 53l59 246l215 -64l-6 230h240l-3 -230l218 64z" glyph-name="asterisk" horiz-adv-x="1089" unicode="*"/><glyph d="M778 684v-246h-235v-205h-246v205h-205v246h205v236h246v-236h235z" glyph-name="plus" horiz-adv-x="870" unicode="+"/><glyph d="M31 -276l104 501h383l-225 -501h-262z" glyph-name="comma" horiz-adv-x="559" unicode=","/><glyph d="M727 684v-246h-635v246h635z" glyph-name="hyphen" horiz-adv-x="819" unicode="-"/><glyph d="M412 324v-324h-330v324h330z" glyph-name="period" horiz-adv-x="493" unicode="."/><glyph d="M1096 1526l-697 -1792h-307l696 1792h308z" glyph-name="slash" horiz-adv-x="1187" unicode="/"/><glyph d="M715 1448q262 0 442 -184.5t180 -520.5v-53q0 -172 -51 -309t-138 -222t-197.5 -129t-235.5 -44q-260 0 -441.5 184t-181.5 520v53q0 336 182.5 520.5t440.5 184.5zM715 1192q-76 0 -135.5 -29.5t-93 -75t-56 -106.5t-31 -118.5t-8.5 -119.5v-53q0 -61 8.5 -118.5 t31 -120t56 -107.5t93 -73.5t135.5 -28.5t135 28.5t93 73.5t56.5 107.5t30.5 120t8 118.5v53q0 61 -8 119t-30.5 119t-56.5 106.5t-93 75t-135 29.5z" glyph-name="zero" horiz-adv-x="1429" unicode="0"/><glyph d="M649 1434v-1434h-299v1178h-244v256h543z" glyph-name="one" horiz-adv-x="796" unicode="1"/><glyph d="M580 1448q217 0 356 -140.5t139 -314.5q0 -145 -63.5 -260t-270.5 -338l-125 -135h459v-260h-995v80l338 397q254 299 291 350q61 90 61 166q0 109 -60.5 151t-129.5 42q-63 0 -121 -43t-58 -137v-39h-305v39q0 168 134.5 305t349.5 137z" glyph-name="two" horiz-adv-x="1167" unicode="2"/><glyph d="M336 412q88 -176 262 -176q39 0 75 9t75.5 32.5t63.5 76t24 125.5q0 129 -113 205t-285 16l236 478h-504v256h944l-276 -519q117 -23 207 -150.5t90 -285.5q0 -229 -160 -364t-377 -135q-170 0 -309 85t-197 222z" glyph-name="three" horiz-adv-x="1226" unicode="3"/><glyph d="M1004 1434v-822h153v-256h-153v-356h-299v356h-623v256l623 822h299zM705 989l-297 -377h297v377z" glyph-name="four" horiz-adv-x="1228" unicode="4"/><glyph d="M979 1434v-256h-498l-22 -217q2 -6 7 -6.5t16.5 3t24.5 6.5t39.5 6t55.5 3q211 0 360.5 -141.5t149.5 -358.5q0 -211 -148.5 -352t-353.5 -141q-195 0 -312.5 76.5t-195.5 215.5l238 119q12 -6 33.5 -33.5t44 -53t74 -47t118.5 -21.5q59 0 131 57t72 180 q0 135 -73.5 191.5t-157.5 56.5q-92 0 -179 -64l-264 72l90 705h750z" glyph-name="five" horiz-adv-x="1204" unicode="5"/><glyph d="M971 1434l-350 -488q-10 -25 -35 -37q170 0 316.5 -146.5t146.5 -326.5q0 -197 -146.5 -326.5t-335.5 -129.5q-186 0 -335.5 131t-149.5 325q0 68 13.5 130.5t45 125t51 95t67.5 99t58 83.5l326 465h328zM567 637q-94 0 -150.5 -62.5t-56.5 -138.5q0 -86 57.5 -141 t149.5 -55q88 0 143.5 55t55.5 141q0 74 -56.5 137.5t-142.5 63.5z" glyph-name="six" horiz-adv-x="1130" unicode="6"/><glyph d="M993 1434l-553 -1434h-315l455 1178h-519v256h932z" glyph-name="seven" horiz-adv-x="1064" unicode="7"/><glyph d="M893 819q98 -47 160.5 -146.5t62.5 -219.5q0 -207 -160.5 -337t-357.5 -130t-356.5 130t-159.5 337q0 121 62.5 220t160.5 146q-125 113 -125 254q0 156 117 265.5t301 109.5q186 0 303 -109.5t117 -265.5q0 -141 -125 -254zM473 1057q0 -53 36 -94t89 -41t90 41t37 94 q0 55 -38 92t-89 37q-49 0 -87 -37t-38 -92zM598 254q82 0 140.5 56.5t58.5 142.5q0 100 -61.5 156.5t-137.5 56.5q-74 0 -135.5 -56.5t-61.5 -156.5q0 -88 57.5 -143.5t139.5 -55.5z" glyph-name="eight" horiz-adv-x="1198" unicode="8"/><glyph d="M176 -2l350 487q12 25 35 37q-168 0 -315.5 146.5t-147.5 326.5q0 197 146.5 327t335.5 130q186 0 335.5 -131t149.5 -326q0 -68 -12.5 -129t-46 -126.5t-49 -93.5t-69.5 -102.5t-59 -80.5l-323 -465h-330zM582 795q94 0 149 62.5t55 137.5q0 86 -57 141.5t-149 55.5 q-88 0 -143.5 -55.5t-55.5 -141.5q0 -74 56.5 -137t144.5 -63z" glyph-name="nine" horiz-adv-x="1130" unicode="9"/><glyph d="M432 1065v-324h-330v324h330zM432 324v-324h-330v324h330z" glyph-name="colon" horiz-adv-x="534" unicode=":"/><glyph d="M543 1065v-324h-330v324h330zM51 -276l105 501h383l-226 -501h-262z" glyph-name="semicolon" horiz-adv-x="645" unicode=";"/><glyph d="M946 985v-276l-434 -217l434 -213v-279l-854 446v93z" glyph-name="less" horiz-adv-x="1017" unicode="&lt;"/><glyph d="M780 848v-246h-686v246h686zM780 520v-246h-686v246h686z" glyph-name="equal" horiz-adv-x="872" unicode="="/><glyph d="M72 985l854 -446v-93l-854 -446v279l434 213l-434 217v276z" glyph-name="greater" horiz-adv-x="1017" unicode=">"/><glyph d="M578 1448q193 0 336 -121t143 -315q0 -94 -28 -159t-67.5 -99.5t-78.5 -68.5t-67 -87t-28 -131v-10h-309v10q0 96 29 165.5t69.5 110.5t81.5 76t70 82t29 111q0 27 -5 51t-21.5 57t-54.5 52.5t-95 19.5q-111 0 -156 -65.5t-45 -141.5h-299q0 209 150.5 336t345.5 127z M807 324v-324h-330v324h330z" glyph-name="question" horiz-adv-x="1138" unicode="?"/><glyph d="M936 1055v4h184q-127 121 -280 121q-188 0 -323.5 -135.5t-135.5 -337.5q0 -190 132 -323.5t310 -133.5q141 0 262 94l258 -108q-92 -115 -226 -182.5t-277 -67.5q-184 0 -355.5 90t-282 259t-110.5 372q0 213 110.5 386t280.5 264t357 91q184 0 346 -91t264 -264 t102 -386q0 -174 -91 -270.5t-236 -96.5q-80 0 -136.5 24.5t-78.5 55.5q-14 -23 -68.5 -51.5t-130.5 -28.5q-133 0 -238.5 98.5t-105.5 272.5q0 172 106.5 271t237.5 99q80 1 125 -26zM1219 604q8 0 14 2t10 4t7 7.5t6.5 9.5t4.5 11t2 12t1 14.5v14.5v15.5v16.5 q0 168 -101 299v-346q1 -60 56 -60zM815 596q59 0 82 40t23 79q0 137 -105 137q-100 0 -100 -137q0 -20 5 -44t29.5 -49.5t65.5 -25.5z" glyph-name="at" horiz-adv-x="1644" unicode="@"/><glyph d="M1139 0l-88 205h-574l-90 -205h-336l707 1450h12l705 -1450h-336zM584 451h358l-178 407z" glyph-name="A" horiz-adv-x="1525" unicode="A"/><glyph d="M915 795q117 -31 205 -131.5t88 -235.5q0 -203 -130 -315.5t-382 -112.5h-583v1434h549q205 0 322.5 -103.5t117.5 -247.5q0 -98 -55.5 -177.5t-131.5 -110.5zM418 881h252q66 0 100.5 48t34.5 109q0 59 -37 97.5t-100 38.5h-250v-293zM686 260q223 0 223 191 q0 94 -60.5 147t-174.5 53h-256v-391h268z" glyph-name="B" horiz-adv-x="1300" unicode="B"/><glyph d="M815 1448q283 0 477 -178l-188 -228q-125 106 -283 107q-162 0 -276.5 -127t-114.5 -305q0 -180 113.5 -306t277.5 -126q147 0 289 112l186 -227q-201 -184 -481 -184q-279 0 -501 208.5t-222 518.5q0 209 106.5 381t271.5 263t345 91z" glyph-name="C" horiz-adv-x="1368" unicode="C"/><glyph d="M633 1434q301 0 510 -207t209 -502q0 -305 -208 -515t-511 -210h-520v1434h520zM633 260q195 0 302 130t107 335q0 195 -107.5 322t-301.5 127h-213v-914h213z" glyph-name="D" horiz-adv-x="1443" unicode="D"/><glyph d="M428 268h666v-268h-981v1434h956v-269h-641v-311h440v-268h-440v-318z" glyph-name="E" horiz-adv-x="1206" unicode="E"/><glyph d="M1085 1165h-659v-327h549v-271h-549v-567h-313v1434h972v-269z" glyph-name="F" horiz-adv-x="1157" unicode="F"/><glyph d="M1493 729q10 -168 -38 -309t-139 -235.5t-215 -146.5t-265 -52q-193 0 -362 91t-275.5 261t-106.5 379q0 313 222.5 522t514.5 209q301 0 482 -205l-189 -213q-109 119 -286 119q-164 0 -284 -123t-120 -305t123 -309t289 -127q221 0 311 178h-162v266h412h88z" glyph-name="G" horiz-adv-x="1564" unicode="G"/><glyph d="M1067 1434h307v-1434h-307v584h-623v-584h-307v1434h307v-586h623v586z" glyph-name="H" horiz-adv-x="1511" unicode="H"/><glyph d="M436 1434v-1434h-313v1434h313z" glyph-name="I" horiz-adv-x="559" unicode="I"/><glyph d="M989 1434v-955q0 -135 -46 -235.5t-122 -154.5t-156.5 -78.5t-162.5 -24.5q-281 0 -430 174l196 194q80 -96 217 -96q37 0 67 7t64.5 27.5t54 71t19.5 123.5v947h299z" glyph-name="J" horiz-adv-x="1112" unicode="J"/><glyph d="M1454 1434l-559 -705l627 -729h-361l-440 514l-268 -326v-188h-310v1434h310v-813l641 813h360z" glyph-name="K" horiz-adv-x="1593" unicode="K"/><glyph d="M420 256h594v-256h-901v1434h307v-1178z" glyph-name="L" horiz-adv-x="1105" unicode="L"/><glyph d="M1614 1434v-1434h-307v737l-312 -737h-258l-307 735v-735h-307v1434h295l450 -1006l451 1006h295z" glyph-name="M" horiz-adv-x="1736" unicode="M"/><glyph d="M1280 1434v-1446h-10l-850 792v-780h-307v1446h8l852 -793v781h307z" glyph-name="N" horiz-adv-x="1392" unicode="N"/><glyph d="M815 1448q283 0 503 -209t220 -522.5t-220 -522t-503 -208.5q-178 0 -343 91t-272.5 262t-107.5 378t107.5 378t272.5 262t343 91zM817 1149q-158 0 -270.5 -121t-112.5 -311.5t112.5 -311t270.5 -120.5q168 0 275.5 118.5t107.5 313t-107.5 313.5t-275.5 119z" glyph-name="O" horiz-adv-x="1630" unicode="O"/><glyph d="M623 1434q248 0 387 -130t139 -350q0 -217 -139.5 -344t-386.5 -127h-203v-483h-307v1434h510zM604 743q238 0 238 211q0 207 -238 207h-184v-418h184z" glyph-name="P" horiz-adv-x="1220" unicode="P"/><glyph d="M1546 0h-352l-51 68q-158 -82 -328 -82q-178 0 -343 91t-272.5 262t-107.5 378t107.5 378t272.5 262t343 91q283 0 503 -209t220 -522q0 -272 -174 -473zM817 285q82 0 144 26l-254 336h352l102 -135q39 94 39 205q0 195 -107.5 313.5t-275.5 118.5q-158 0 -270.5 -121 t-112.5 -311.5t112.5 -311t270.5 -120.5z" glyph-name="Q" horiz-adv-x="1630" unicode="Q"/><glyph d="M1251 0h-340l-309 483h-182v-483h-307v1434h510q248 0 387 -130t139 -350q0 -301 -252 -417zM420 1161v-418h184q238 0 238 211q0 207 -238 207h-184z" glyph-name="R" horiz-adv-x="1323" unicode="R"/><glyph d="M612 1448q164 0 287 -82t182 -199l-268 -90q-55 109 -201 109q-68 0 -117 -33t-49 -84q0 -57 36 -92t139 -72l51 -16q449 -152 448 -477q0 -141 -86 -241.5t-200.5 -142.5t-239.5 -42q-178 0 -321.5 91t-200.5 245l250 112q31 -78 106.5 -132t165.5 -54q88 0 152.5 41 t64.5 123q0 78 -46 117.5t-177 86.5l-49 19q-190 68 -296 169t-106 265q0 168 140 273.5t335 105.5z" glyph-name="S" horiz-adv-x="1191" unicode="S"/><glyph d="M1159 1434v-273h-362v-1161h-328v1161h-367v273h695h362z" glyph-name="T" horiz-adv-x="1261" unicode="T"/><glyph d="M1278 1434v-914q0 -240 -172 -387t-410 -147q-240 0 -411.5 147.5t-171.5 386.5v914h299v-916q0 -139 87 -205.5t197.5 -66.5t196.5 66.5t86 205.5v916h299z" glyph-name="U" horiz-adv-x="1390" unicode="U"/><glyph d="M1495 1434l-698 -1434h-47l-699 1434h336l385 -848l387 848h336z" glyph-name="V" horiz-adv-x="1546" unicode="V"/><glyph d="M2126 1434l-553 -1434h-76l-397 856l-402 -856h-75l-551 1434h327l291 -791l365 791h88l366 -791l287 791h330z" glyph-name="W" horiz-adv-x="2197" unicode="W"/><glyph d="M1413 0h-354l-307 459l-306 -459h-354l481 725l-475 709h355l297 -443l292 443h355l-469 -709z" glyph-name="X" horiz-adv-x="1505" unicode="X"/><glyph d="M1450 1434l-545 -842v-592h-299v592l-545 842h340l355 -574l354 574h340z" glyph-name="Y" horiz-adv-x="1511" unicode="Y"/><glyph d="M1210 1434l-663 -1178h672v-256h-1147l663 1178h-626v256h1101z" glyph-name="Z" horiz-adv-x="1290" unicode="Z"/><glyph d="M543 1526v-256h-152v-1280h152v-256h-451v1792h451z" glyph-name="bracketleft" horiz-adv-x="634" unicode="["/><glyph d="M92 1526h307l697 -1792h-308z" glyph-name="backslash" horiz-adv-x="1187" unicode="\"/><glyph d="M92 1526h451v-1792h-451v256h152v1280h-152v256z" glyph-name="bracketright" horiz-adv-x="634" unicode="]"/><glyph d="M592 1434l342 -461h-203l-217 192l-219 -192h-203l342 461h158z" glyph-name="asciicircum" horiz-adv-x="1026" unicode="^"/><glyph d="M1116 0v-256h-1024v256h1024z" glyph-name="underscore" horiz-adv-x="1208" unicode="_"/><glyph d="M14 1434h353l135 -265h-223z" glyph-name="grave" horiz-adv-x="501" unicode="`"/><glyph d="M848 1065h299v-1065h-299v133q-4 -41 -84 -94t-191 -53q-188 0 -344.5 145t-156.5 404q0 129 46 235.5t120.5 172t161.5 100t173 34.5q117 0 195 -46t80 -85v119zM625 242q102 0 169.5 71.5t67.5 221t-67.5 218t-169.5 68.5q-100 0 -177 -79.5t-77 -206.5q0 -131 77 -212 t177 -81z" glyph-name="a" unicode="a"/><glyph d="M676 1077q86 0 173 -34.5t161.5 -100t121 -172t46.5 -235.5q0 -133 -46.5 -242t-121 -173.5t-161.5 -99t-173 -34.5q-111 0 -189.5 52t-85.5 93v-131h-299v1065v369h297v-369h2v-119q2 39 81 85t194 46zM625 242q100 0 177 80.5t77 212.5q0 127 -77 206.5t-177 79.5 q-102 0 -170 -68.5t-68 -218t68 -221t170 -71.5z" glyph-name="b" horiz-adv-x="1249" unicode="b"/><glyph d="M631 1077q131 0 246.5 -61.5t191.5 -184.5l-240 -108q-70 98 -198 98q-98 0 -176 -78.5t-78 -212.5q0 -131 77.5 -209.5t176.5 -78.5q129 0 198 98l242 -109q-76 -123 -192.5 -184t-247.5 -61q-72 0 -146.5 20.5t-147.5 65.5t-129 107.5t-91 153.5t-35 197q0 133 52 241 t135 172.5t177.5 99t184.5 34.5z" glyph-name="c" horiz-adv-x="1126" unicode="c"/><glyph d="M850 1434h297v-529v-905h-299v131q-6 -41 -85 -93t-190 -52q-86 0 -173 34.5t-161.5 99t-120.5 173t-46 242.5q0 129 46 235.5t120.5 172t161.5 100t173 34.5q115 0 194 -46t81 -85v119h2v369zM625 242q102 0 169.5 71.5t67.5 221t-67.5 218t-169.5 68.5 q-100 0 -177 -79.5t-77 -206.5q0 -131 77 -212t177 -81z" glyph-name="d" unicode="d"/><glyph d="M610 1077q88 0 179.5 -35.5t171 -101.5t130 -174.5t50.5 -237.5q0 -51 -8 -98h-754q20 -88 95 -138t161 -50q106 0 209 65l174 -166q-145 -156 -383 -155q-92 0 -188.5 33.5t-181.5 97t-139 171t-54 241t51 242t132 173t173 99t182 34.5zM614 821q-82 0 -146.5 -48 t-84.5 -136h459q-20 88 -85 136t-143 48z" glyph-name="e" horiz-adv-x="1222" unicode="e"/><glyph d="M565 1204q-92 0 -90 -110v-7v-22h238v-242h-238v-823h-299v823h-135v242h135v29q0 90 26.5 157.5t65.5 104.5t93.5 58.5t96.5 27.5t87 6q145 0 276 -66l-96 -206q-78 28 -160 28z" glyph-name="f" horiz-adv-x="872" unicode="f"/><glyph d="M848 1065h299v-1065q0 -111 -52.5 -197t-134 -132t-166.5 -68.5t-163 -22.5q-35 0 -68 3t-61.5 9.5t-50 11.5t-46 14t-35 14.5t-33 15.5t-26.5 12v258q178 -86 320 -86q104 0 160.5 52.5t56.5 115.5v133q-4 -41 -84 -94t-191 -53q-188 0 -344.5 145t-156.5 404 q0 129 46 235.5t120.5 172t161.5 100t173 34.5q117 0 195 -46t80 -85v119zM625 242q102 0 169.5 71.5t67.5 221t-67.5 218t-169.5 68.5q-100 0 -177 -79.5t-77 -206.5q0 -131 77 -212t177 -81z" glyph-name="g" unicode="g"/><glyph d="M762 1075q168 0 285.5 -114.5t117.5 -348.5v-612h-299v592q0 231 -176 231q-104 0 -175 -71.5t-93 -147.5v-604h-299v1434h299v-562q27 63 115 133t225 70z" glyph-name="h" horiz-adv-x="1267" unicode="h"/><glyph d="M412 1434v-244h-306v244h306zM412 1065v-1065h-306v1065h306z" glyph-name="i" horiz-adv-x="518" unicode="i"/><glyph d="M438 1434v-244h-299v244h299zM438 1065v-1165q0 -160 -86 -240t-239 -80q-84 0 -226 49v299q25 -6 56.5 -15l49 -14t39 -9.5t40.5 -4.5q68 0 67 113v1067h299z" glyph-name="j" horiz-adv-x="544" unicode="j"/><glyph d="M864 0l-358 426l-84 -88v-338h-299v377v1057h299v-736l342 367h354l-428 -447l518 -618h-344z" glyph-name="k" unicode="k"/><glyph d="M428 1434v-1434h-305v1434h305z" glyph-name="l" horiz-adv-x="550" unicode="l"/><glyph d="M1524 1075q182 0 305 -124t123 -382v-569h-301v563q0 123 -55.5 191.5t-161.5 68.5q-94 0 -160 -67.5t-86 -159.5v-596h-303v563q0 119 -58.5 189.5t-154.5 70.5q-207 0 -250 -227l4 -596h-303v1065h299v-203q14 76 95 144.5t226 68.5q121 0 225.5 -59.5t166.5 -173.5 q25 51 63.5 97t126.5 91t199 45z" glyph-name="m" horiz-adv-x="2054" unicode="m"/><glyph d="M762 1075q168 0 285.5 -114.5t117.5 -348.5v-612h-299v592q0 231 -176 231q-104 0 -175 -71.5t-93 -147.5v-604h-299v1065h299v-193q27 63 115 133t225 70z" glyph-name="n" horiz-adv-x="1267" unicode="n"/><glyph d="M627 1077q86 0 178 -34.5t176 -99t137 -173t53 -242t-53 -241t-137 -171t-176 -97t-178 -33.5t-178.5 33.5t-176.5 97t-137 171t-53 241t53 242t137 173t176.5 99t178.5 34.5zM626.5 817q-98.5 0 -172 -76.5t-73.5 -212.5q0 -131 73.5 -206.5t172 -75.5t172 75.5 t73.5 206.5q0 135 -73.5 212t-172 77z" glyph-name="o" horiz-adv-x="1253" unicode="o"/><glyph d="M676 1077q86 0 173 -34.5t161.5 -100t121 -172t46.5 -235.5q0 -133 -46.5 -242t-121 -173.5t-161.5 -99t-173 -34.5q-102 0 -178 45t-92 88v-508h-300v389h-4v1065h299v-119q2 39 81 85t194 46zM625 242q100 0 177 80.5t77 212.5q0 127 -77 206.5t-177 79.5 q-102 0 -170 -68.5t-68 -218t68 -221t170 -71.5z" glyph-name="p" horiz-adv-x="1249" unicode="p"/><glyph d="M1147 1065v-1065h-2v-389h-299v512q-16 -45 -92 -91t-181 -46q-86 0 -173 34.5t-161.5 99t-120.5 173t-46 242.5q0 129 46 235.5t120.5 172t161.5 100t173 34.5q115 0 194 -46t81 -85v119h299zM625 242q102 0 169.5 71.5t67.5 221t-67.5 218t-169.5 68.5 q-100 0 -177 -79.5t-77 -206.5q0 -131 77 -212t177 -81z" glyph-name="q" unicode="q"/><glyph d="M772 1075q68 0 100 -8v-279q-35 6 -102 7q-141 0 -247.5 -95.5t-119.5 -242.5v-457h-297v1065h297v-342q18 156 113.5 254t255.5 98z" glyph-name="r" horiz-adv-x="923" unicode="r"/><glyph d="M635 743q-53 84 -129 84q-88 0 -88 -67q0 -53 71 -80l132 -47q168 -59 219 -98q104 -74 104 -218q0 -154 -138 -242.5t-310 -88.5q-154 0 -277 76.5t-158 207.5l246 80q20 -51 72.5 -81.5t116.5 -30.5q59 0 96 23.5t37 60.5q0 57 -82 90l-125 43q-168 61 -242 125.5 t-74 187.5q0 141 114 225t274 84q283 0 399 -268z" glyph-name="s" horiz-adv-x="1005" unicode="s"/><glyph d="M584 246q82 0 143 22v-245q-76 -35 -219 -35t-226 75.5t-83 282.5v477h-138v242h138v184h299v-184h225v-242h-225v-475q0 -102 86 -102z" glyph-name="t" horiz-adv-x="794" unicode="t"/><glyph d="M846 1065h299v-1065h-299v215q-20 -76 -114.5 -152.5t-235.5 -76.5q-170 0 -282 109.5t-112 353.5v616h299v-616q0 -207 172 -207q98 0 183.5 98t89.5 168v557z" glyph-name="u" horiz-adv-x="1257" unicode="u"/><glyph d="M1143 1065l-541 -1065h-16l-541 1065h303l246 -518l246 518h303z" glyph-name="v" horiz-adv-x="1187" unicode="v"/><glyph d="M1516 1065l-443 -1065h-8l-285 567l-284 -567h-9l-442 1065h291l196 -494l242 494h12l242 -494l197 494h291z" glyph-name="w" horiz-adv-x="1560" unicode="w"/><glyph d="M881 0l-242 344l-242 -344h-336l412 547l-371 518h330l207 -315l205 315h330l-371 -518l411 -547h-333z" glyph-name="x" horiz-adv-x="1275" unicode="x"/><glyph d="M915 1065h293l-590 -1454h-290l168 418l-451 1036h295l297 -686z" glyph-name="y" horiz-adv-x="1253" unicode="y"/><glyph d="M1030 1065l-508 -809h457v-256h-928l502 809h-475v256h952z" glyph-name="z" horiz-adv-x="1081" unicode="z"/><glyph d="M627 1526v-256h-72q-72 0 -72 -62v-442l-114 -139l114 -135v-441q0 -61 72 -61h72v-256h-211q-92 0 -162 50t-70 181v516l-92 146l92 149v518q0 131 71 181.5t161 50.5h211z" glyph-name="braceleft" horiz-adv-x="718" unicode="{"/><glyph d="M410 1638v-2027h-256v2027h256z" glyph-name="bar" horiz-adv-x="563" unicode="|"/><glyph d="M92 1526h211q90 0 161 -50.5t71 -181.5v-518l92 -149l-92 -146v-516q0 -131 -70 -181t-162 -50h-211v256h72q72 0 72 61v441l114 135l-114 139v442q0 61 -72 62h-72v256z" glyph-name="braceright" horiz-adv-x="718" unicode="}"/><glyph d="M362 772q88 0 223.5 -71.5t192.5 -71.5q45 0 77 12t32 31h110q0 -117 -67.5 -195t-196.5 -78q-88 0 -228 82t-202 82q-41 0 -72.5 -17.5t-29.5 -43.5h-109q0 117 67.5 193.5t202.5 76.5z" glyph-name="asciitilde" horiz-adv-x="1089" unicode="~"/><glyph d="M504 741h-330v324h330v-324zM502 -369h-338v967h338v-967z" glyph-name="exclamdown" horiz-adv-x="548" unicode="¡"/><glyph d="M1071 381q-121 -190 -334 -231v-232h-239v240q-172 43 -294 176t-122 340t122 340t294 176v244h239v-236q215 -41 332 -229l-240 -107q-35 49 -92 74v-522q57 25 92 73zM377 674q0 -162 121 -240v481q-121 -77 -121 -241z" glyph-name="cent" horiz-adv-x="1126" unicode="¢"/><glyph d="M1178 983h-299v37q0 68 -43 120t-158 52q-104 0 -149.5 -57.5t-45.5 -130.5q0 -113 76 -232h248v-223h-150q2 -10 2 -31q0 -115 -81 -266h579v-256h-1065v59q20 31 60 84q123 172 157.5 235.5t36.5 129.5q0 31 -4 45h-182v223h82q-68 121 -68 232q0 203 154.5 323.5 t349.5 120.5q193 0 346.5 -120t153.5 -308v-37z" glyph-name="sterling" horiz-adv-x="1269" unicode="£"/><glyph d="M913 975q0 -100 -41 -189l97 -96l-178 -178l-82 82q-113 -78 -254 -78q-137 0 -250 74l-76 -78l-180 178l90 90q-43 88 -43 195q0 109 47 203l-94 94l180 176l84 -82q109 68 242 68t247 -72l89 86l178 -176l-101 -101q45 -94 45 -196zM455 756q117 0 169 73.5t52 145.5 t-52.5 145.5t-169 73.5t-167.5 -73.5t-51 -145.5q0 -41 15 -87t68.5 -89t135.5 -43z" glyph-name="currency" horiz-adv-x="1081" unicode="¤"/><glyph d="M1450 1434l-526 -816h172v-225h-191v-71h191v-228h-191v-94h-299v94h-190v228h190v71h-190v225h172l-527 816h340l355 -574l354 574h340z" glyph-name="yen" horiz-adv-x="1511" unicode="¥"/><glyph d="M410 1638v-573h-256v573h256zM410 184v-573h-256v573h256z" glyph-name="brokenbar" horiz-adv-x="563" unicode="¦"/><glyph d="M750 913q430 -131 430 -471q0 -98 -52 -190q51 -96 52 -209q0 -133 -85 -237.5t-207 -154.5t-251 -50q-217 0 -372.5 135t-192.5 346l313 100q6 -125 74.5 -198.5t177.5 -73.5q92 0 152.5 36t60.5 97q0 63 -41 100t-119 64l-176 59q-367 117 -367 420q0 82 52 201 q-51 119 -52 211q0 184 145.5 305t350.5 121q227 0 380 -138.5t175 -320.5l-332 -96q31 84 -35.5 164.5t-187.5 80.5q-78 0 -123 -32.5t-45 -83.5t30 -82t103 -53zM467 686q-8 0 -14 2zM750 508l98 -33q-18 92 -158 141l-176 52q-37 16 -39 16q0 -49 31 -79t102 -48z" glyph-name="section" horiz-adv-x="1263" unicode="§"/><glyph d="M305 1434v-244h-305v244h305zM834 1434v-244h-306v244h306z" glyph-name="dieresis" horiz-adv-x="833" unicode="¨"/><glyph d="M838 1448q182 0 352 -91t281.5 -262t111.5 -378t-111.5 -378t-281.5 -262t-352 -91q-178 0 -348.5 90t-284 262t-113.5 379t113.5 379t284 262t348.5 90zM842 1163q-170 0 -300 -125t-130 -321.5t130 -321.5t300 -125q174 0 298 124t124 322.5t-124 322.5t-298 124z M850 1094q150 0 235 -115l-165 -188q-27 23 -66 22q-37 0 -63.5 -28.5t-26.5 -67.5q0 -41 25.5 -70t64.5 -29q35 0 66 23l165 -184q-82 -117 -235 -117q-147 0 -258 107.5t-111 269.5q0 160 112 268.5t257 108.5z" glyph-name="copyright" horiz-adv-x="1675" unicode="©"/><glyph d="M408 1466q152 0 232.5 -83t80.5 -240v-197q0 -59 11 -93t46 -83h-192q-16 6 -39 76q-66 -80 -182 -80q-129 0 -206 55.5t-77 161.5q0 100 84 160.5t207 70.5l141 11q2 41 -29.5 59.5t-76.5 18.5q-84 0 -191 -93l-113 111q41 66 123.5 105.5t180.5 39.5zM514 1061 q-84 -10 -143 -14q-92 -6 -92 -64q0 -18 20 -37.5t66 -19.5q104 0 149 104v31z" glyph-name="ordfeminine" horiz-adv-x="890" unicode="ª"/><glyph d="M203 809l278 211v-203l-176 -209l176 -211v-202l-278 208v406zM637 809l278 211v-203l-176 -209l176 -211v-202l-278 208v406z" glyph-name="guillemotleft" horiz-adv-x="907" unicode="«"/><glyph d="M979 618v-380h-299v135h-588v245h887z" glyph-name="logicalnot" horiz-adv-x="1071" unicode="¬"/><glyph d="M727 684v-246h-635v246h635z" glyph-name="uni00AD" horiz-adv-x="819" unicode="­"/><glyph d="M838 1448q182 0 352 -91t281.5 -262t111.5 -378t-111.5 -378t-281.5 -262t-352 -91q-178 0 -348.5 90t-284 262t-113.5 379t113.5 379t284 262t348.5 90zM842 270q174 0 298 124t124 322.5t-124 322.5t-298 124q-170 0 -300 -125t-130 -321.5t130 -321.5t300 -125z M1083 854q0 -76 -30.5 -119t-114.5 -90l162 -270h-226l-88 160v-160h-202v698h227q117 0 194.5 -63.5t77.5 -155.5zM825 829q35 0 35 27q0 14 -11 23.5t-24 9.5h-45v-60h45z" glyph-name="registered" horiz-adv-x="1675" unicode="®"/><glyph d="M774 1434v-242h-774v242h774z" glyph-name="macron" horiz-adv-x="774" unicode="¯"/><glyph d="M397 1473q125 0 215 -89.5t90 -212.5q0 -125 -90 -214t-215 -89t-215 89.5t-90 213.5q0 123 90 212.5t215 89.5zM397 1262q-37 0 -58.5 -22.5t-25.5 -39t-4 -29.5q0 -14 4 -31.5t25.5 -39t58.5 -21.5t59.5 21.5t25.5 39t3 31.5q0 12 -3 29t-25.5 39.5t-59.5 22.5z" glyph-name="degree" horiz-adv-x="794" unicode="°"/><glyph d="M543 717h235v-246h-235v-205h-246v205h-205v246h205v235h246v-235zM92 2v246h686v-246h-686z" glyph-name="plusminus" horiz-adv-x="870" unicode="±"/><glyph d="M264 1442q70 0 121 -46t51 -108q0 -53 -29.5 -96t-109.5 -125l-96 -100h241v-66h-344v66l140 141q57 59 74.5 78.5t31.5 46.5t14 55q0 37 -28.5 63.5t-65.5 26.5q-39 0 -67.5 -26.5t-28.5 -75.5v-29h-76v29q0 72 50 119t122 47z" glyph-name="uni00B2" horiz-adv-x="534" unicode="²"/><glyph d="M279 1440q66 0 114.5 -43t48.5 -97q0 -66 -61 -108q86 -37 86 -135q0 -70 -56.5 -117t-131.5 -47q-86 0 -140.5 55.5t-46.5 130.5h78q-14 -47 20.5 -84t88.5 -37q45 0 77.5 28t32.5 71q0 57 -41 80.5t-110 7.5v65q129 12 129 90q0 31 -26 53.5t-62 22.5q-45 0 -73 -32.5 t-20 -86.5h-80q-8 76 43.5 129.5t129.5 53.5z" glyph-name="uni00B3" horiz-adv-x="559" unicode="³"/><glyph d="M487 1434l-264 -265h-223l135 265h352z" glyph-name="acute" horiz-adv-x="487" unicode="´"/><glyph d="M846 1065h299v-1065h-299v215q-20 -76 -114.5 -152.5t-235.5 -76.5q-53 0 -95 8v-383h-299v1454h299v-616q0 -207 172 -207q98 0 183.5 98t89.5 168v557z" glyph-name="uni00B5" horiz-adv-x="1257" unicode="µ"/><glyph d="M731 1434h510v-1434h-307v483h-203q-248 0 -387 127t-139 344q0 219 139 349.5t387 130.5zM1735 1434v-1434h-299v1434h299zM750 743h184v418h-184q-238 0 -238 -207q0 -211 238 -211z" glyph-name="paragraph" horiz-adv-x="1878" unicode="¶"/><glyph d="M412 735v-323h-330v323h330z" glyph-name="periodcentered" horiz-adv-x="548" unicode="·"/><glyph d="M297 -111q82 -18 137 -73.5t55 -130.5q0 -121 -123.5 -168t-328.5 -33l33 88q104 16 147 39.5t43 73.5q0 39 -32.5 58t-71.5 -5l-31 -33l-70 125l97 172h251z" glyph-name="cedilla" horiz-adv-x="483" unicode="¸"/><glyph d="M254 1436v-535h-76v453l-35 -23l-37 64l72 41h76z" glyph-name="uni00B9" horiz-adv-x="407" unicode="¹"/><glyph d="M406 1444q119 0 220 -93.5t101 -240.5q0 -150 -101.5 -243t-219.5 -93q-121 0 -222.5 93.5t-101.5 242.5q0 147 101.5 240.5t222.5 93.5zM406 1251q-51 0 -95.5 -42t-44.5 -97t44 -98t96 -43q49 0 91 43t42 98q0 53 -43 96t-90 43z" glyph-name="ordmasculine" horiz-adv-x="808" unicode="º"/><glyph d="M270 809v-406l-278 -208v202l174 211l-174 209v203zM705 809v-406l-279 -208v202l174 211l-174 209v203z" glyph-name="guillemotright" horiz-adv-x="907" unicode="»"/><glyph d="M205 1436v-535h-76v453l-35 -23l-37 64l72 41h76zM1030 1434l-880 -1434h-99l893 1434h86zM1059 535v-316h55v-63h-55v-156h-76v156h-270l270 379h76zM983 414l-133 -195h133v195z" glyph-name="onequarter" horiz-adv-x="1165" unicode="¼"/><glyph d="M205 1436v-535h-76v453l-35 -23l-37 64l72 41h76zM1030 1434l-880 -1434h-99l893 1434h86zM885 541q70 0 121 -46t51 -108q0 -53 -30 -96t-109 -125l-97 -100h242v-66h-344v66l139 141q57 59 74.5 78.5t32 46t14.5 55.5q0 37 -28.5 63.5t-65.5 26.5q-39 0 -68 -26.5 t-29 -75.5v-29h-75v29q0 72 50 119t122 47z" glyph-name="onehalf" horiz-adv-x="1114" unicode="½"/><glyph d="M238 1440q66 0 114.5 -43t48.5 -97q0 -66 -61 -108q86 -37 86 -135q0 -70 -56.5 -117t-131.5 -47q-86 0 -140.5 55.5t-46.5 130.5h78q-14 -47 20.5 -84t88.5 -37q45 0 77.5 28t32.5 71q0 57 -41 80.5t-110 7.5v65q129 12 129 90q0 31 -26 53.5t-62 22.5q-45 0 -73 -32.5 t-20 -86.5h-79q-8 76 43 129.5t129 53.5zM1087 1434l-880 -1434h-98l892 1434h86zM1096 535v-316h55v-63h-55v-156h-76v156h-270l270 379h76zM1020 414l-133 -195h133v195z" glyph-name="threequarters" horiz-adv-x="1202" unicode="¾"/><glyph d="M332 741v324h330v-324h-330zM561 -383q-193 0 -336 121t-143 315q0 94 27.5 158.5t66.5 99.5t78 69t66.5 87t27.5 131v10h311v-10q0 -96 -28.5 -166t-69.5 -110.5t-82 -75.5t-69.5 -82t-28.5 -111q0 -27 5 -51.5t21.5 -57t54.5 -52t95 -19.5q111 0 156 65.5t45 141.5h299 q0 -209 -150.5 -336t-345.5 -127z" glyph-name="questiondown" horiz-adv-x="1138" unicode="¿"/><glyph d="M895 1538h-223l-264 264h352zM1139 0l-88 205h-574l-90 -205h-336l707 1450h12l705 -1450h-336zM584 451h358l-178 407z" glyph-name="Agrave" horiz-adv-x="1525" unicode="À"/><glyph d="M1137 1802l-265 -264h-223l135 264h353zM1139 0l-88 205h-574l-90 -205h-336l707 1450h12l705 -1450h-336zM584 451h358l-178 407z" glyph-name="Aacute" horiz-adv-x="1525" unicode="Á"/><glyph d="M764 1698l-211 -174h-203l209 278h406l211 -278h-203zM1139 0l-88 205h-574l-90 -205h-336l707 1450h12l705 -1450h-336zM584 451h358l-178 407z" glyph-name="Acircumflex" horiz-adv-x="1525" unicode="Â"/><glyph d="M541 1694q-29 0 -56.5 -18.5t-25.5 -45.5h-109q0 117 63.5 195t186.5 78q78 0 203 -72t172 -72q31 0 59.5 12.5t28.5 30.5h111q0 -117 -63.5 -195.5t-180.5 -78.5q-78 0 -208 83t-181 83zM1139 0l-88 205h-574l-90 -205h-336l707 1450h12l705 -1450h-336zM584 451h358 l-178 407z" glyph-name="Atilde" horiz-adv-x="1525" unicode="Ã"/><glyph d="M651 1802v-243h-305v243h305zM1180 1802v-243h-306v243h306zM1139 0l-88 205h-574l-90 -205h-336l707 1450h12l705 -1450h-336zM584 451h358l-178 407z" glyph-name="Adieresis" horiz-adv-x="1525" unicode="Ä"/><glyph d="M764 1561q-98 0 -168 68.5t-70 160.5q0 98 69 166.5t169 68.5q94 0 162.5 -69.5t68.5 -165.5q0 -92 -68.5 -160.5t-162.5 -68.5zM760 1847q-23 0 -37 -15t-14 -38q0 -20 15 -34.5t35.5 -14.5t37 14.5t16.5 34.5q0 23 -16.5 38t-36.5 15zM1139 0l-88 205h-574l-90 -205 h-336l707 1450h12l705 -1450h-336zM584 451h358l-178 407z" glyph-name="Aring" horiz-adv-x="1525" unicode="Å"/><glyph d="M1356 268h665v-268h-981v375h-401l-256 -375h-332l981 1434h324h641v-269h-641v-311h440v-268h-440v-318zM813 631h227v332z" glyph-name="AE" horiz-adv-x="2134" unicode="Æ"/><glyph d="M803 -111q82 -18 137 -73.5t55 -130.5q0 -121 -123.5 -168t-328.5 -33l32 88q104 16 147.5 39.5t43.5 73.5q0 39 -33 58t-71 -5l-31 -33l-70 125l96 172h13q-240 53 -409 248.5t-169 462.5q0 209 106.5 381t271.5 263t345 91q283 0 477 -178l-188 -228q-125 106 -283 107 q-162 0 -276.5 -127t-114.5 -305q0 -180 113.5 -306t277.5 -126q147 0 289 112l186 -227q-166 -154 -397 -180z" glyph-name="Ccedilla" horiz-adv-x="1368" unicode="Ç"/><glyph d="M739 1538h-223l-264 264h352zM428 268h666v-268h-981v1434h956v-269h-641v-311h440v-268h-440v-318z" glyph-name="Egrave" horiz-adv-x="1206" unicode="È"/><glyph d="M981 1802l-264 -264h-223l135 264h352zM428 268h666v-268h-981v1434h956v-269h-641v-311h440v-268h-440v-318z" glyph-name="Eacute" horiz-adv-x="1206" unicode="É"/><glyph d="M608 1698l-211 -174h-202l208 278h406l211 -278h-203zM428 268h666v-268h-981v1434h956v-269h-641v-311h440v-268h-440v-318z" glyph-name="Ecircumflex" horiz-adv-x="1206" unicode="Ê"/><glyph d="M498 1802v-243h-305v243h305zM1026 1802v-243h-305v243h305zM428 268h666v-268h-981v1434h956v-269h-641v-311h440v-268h-440v-318z" glyph-name="Edieresis" horiz-adv-x="1206" unicode="Ë"/><glyph d="M-82 1802h352l136 -264h-224zM436 1434v-1434h-313v1434h313z" glyph-name="Igrave" horiz-adv-x="559" unicode="Ì"/><glyph d="M647 1802l-264 -264h-223l135 264h352zM436 1434v-1434h-313v1434h313z" glyph-name="Iacute" horiz-adv-x="559" unicode="Í"/><glyph d="M475 1802l211 -278h-203l-209 174l-211 -174h-202l209 278h405zM436 1434v-1434h-313v1434h313z" glyph-name="Icircumflex" horiz-adv-x="559" unicode="Î"/><glyph d="M164 1802v-243h-305v243h305zM692 1802v-243h-305v243h305zM436 1434v-1434h-313v1434h313z" glyph-name="Idieresis" horiz-adv-x="559" unicode="Ï"/><glyph d="M741 1434q301 0 510 -207t209 -502q0 -305 -208 -515t-511 -210h-520v578h-108v245h108v611h520zM741 260q195 0 302.5 130t107.5 335q0 195 -107.5 322t-302.5 127h-213v-351h220v-245h-220v-318h213z" glyph-name="Eth" horiz-adv-x="1552" unicode="Ð"/><glyph d="M535 1903q78 0 202.5 -72t171.5 -72q31 0 59.5 12.5t28.5 30.5h111q0 -117 -63.5 -195.5t-180.5 -78.5q-78 0 -208 83t-181 83q-29 0 -56.5 -18.5t-25.5 -45.5h-108q0 117 63.5 195t186.5 78zM1280 1434v-1446h-10l-850 792v-780h-307v1446h8l852 -793v781h307z" glyph-name="Ntilde" horiz-adv-x="1392" unicode="Ñ"/><glyph d="M459 1802h352l135 -264h-223zM815 1448q283 0 503 -209t220 -522.5t-220 -522t-503 -208.5q-178 0 -343 91t-272.5 262t-107.5 378t107.5 378t272.5 262t343 91zM817 1149q-158 0 -270.5 -121t-112.5 -311.5t112.5 -311t270.5 -120.5q168 0 275.5 118.5t107.5 313 t-107.5 313.5t-275.5 119z" glyph-name="Ograve" horiz-adv-x="1630" unicode="Ò"/><glyph d="M1188 1802l-264 -264h-224l136 264h352zM815 1448q283 0 503 -209t220 -522.5t-220 -522t-503 -208.5q-178 0 -343 91t-272.5 262t-107.5 378t107.5 378t272.5 262t343 91zM817 1149q-158 0 -270.5 -121t-112.5 -311.5t112.5 -311t270.5 -120.5q168 0 275.5 118.5 t107.5 313t-107.5 313.5t-275.5 119z" glyph-name="Oacute" horiz-adv-x="1630" unicode="Ó"/><glyph d="M1016 1802l211 -278h-203l-209 174l-211 -174h-203l209 278h406zM815 1448q283 0 503 -209t220 -522.5t-220 -522t-503 -208.5q-178 0 -343 91t-272.5 262t-107.5 378t107.5 378t272.5 262t343 91zM817 1149q-158 0 -270.5 -121t-112.5 -311.5t112.5 -311t270.5 -120.5 q168 0 275.5 118.5t107.5 313t-107.5 313.5t-275.5 119z" glyph-name="Ocircumflex" horiz-adv-x="1630" unicode="Ô"/><glyph d="M651 1903q78 0 203 -72t172 -72q31 0 59.5 12.5t28.5 30.5h111q0 -117 -63.5 -195.5t-180.5 -78.5q-78 0 -208 83t-181 83q-29 0 -56.5 -18.5t-25.5 -45.5h-109q0 117 63.5 195t186.5 78zM815 1448q283 0 503 -209t220 -522.5t-220 -522t-503 -208.5q-178 0 -343 91 t-272.5 262t-107.5 378t107.5 378t272.5 262t343 91zM817 1149q-158 0 -270.5 -121t-112.5 -311.5t112.5 -311t270.5 -120.5q168 0 275.5 118.5t107.5 313t-107.5 313.5t-275.5 119z" glyph-name="Otilde" horiz-adv-x="1630" unicode="Õ"/><glyph d="M702 1802v-243h-305v243h305zM1231 1802v-243h-305v243h305zM815 1448q283 0 503 -209t220 -522.5t-220 -522t-503 -208.5q-178 0 -343 91t-272.5 262t-107.5 378t107.5 378t272.5 262t343 91zM817 1149q-158 0 -270.5 -121t-112.5 -311.5t112.5 -311t270.5 -120.5 q168 0 275.5 118.5t107.5 313t-107.5 313.5t-275.5 119z" glyph-name="Odieresis" horiz-adv-x="1630" unicode="Ö"/><glyph d="M752 743l-166 -165l166 -166l-174 -174l-166 165l-146 -145l-174 174l146 146l-146 145l174 174l146 -145l166 166z" glyph-name="multiply" horiz-adv-x="845" unicode="×"/><glyph d="M1274 1278q121 -100 192.5 -245.5t71.5 -315.5q0 -313 -220 -522t-503 -209q-74 0 -151 18l-50 -106h-335l110 233q-135 102 -216 254t-81 332q0 207 107.5 378t272.5 262t343 91q90 0 191 -27l51 105h336zM434 717q0 -174 96 -293l344 721q-18 4 -57 4 q-158 0 -270.5 -121t-112.5 -311zM817 285q168 0 275.5 118.5t107.5 313.5q0 150 -70 262l-331 -694h18z" glyph-name="Oslash" horiz-adv-x="1630" unicode="Ø"/><glyph d="M340 1802h352l135 -264h-223zM1278 1434v-914q0 -240 -172 -387t-410 -147q-240 0 -411.5 147.5t-171.5 386.5v914h299v-916q0 -139 87 -205.5t197.5 -66.5t196.5 66.5t86 205.5v916h299z" glyph-name="Ugrave" horiz-adv-x="1390" unicode="Ù"/><glyph d="M1067 1802l-264 -264h-223l135 264h352zM1278 1434v-914q0 -240 -172 -387t-410 -147q-240 0 -411.5 147.5t-171.5 386.5v914h299v-916q0 -139 87 -205.5t197.5 -66.5t196.5 66.5t86 205.5v916h299z" glyph-name="Uacute" horiz-adv-x="1390" unicode="Ú"/><glyph d="M897 1802l211 -278h-203l-209 174l-211 -174h-202l209 278h405zM1278 1434v-914q0 -240 -172 -387t-410 -147q-240 0 -411.5 147.5t-171.5 386.5v914h299v-916q0 -139 87 -205.5t197.5 -66.5t196.5 66.5t86 205.5v916h299z" glyph-name="Ucircumflex" horiz-adv-x="1390" unicode="Û"/><glyph d="M584 1802v-243h-305v243h305zM1112 1802v-243h-305v243h305zM1278 1434v-914q0 -240 -172 -387t-410 -147q-240 0 -411.5 147.5t-171.5 386.5v914h299v-916q0 -139 87 -205.5t197.5 -66.5t196.5 66.5t86 205.5v916h299z" glyph-name="Udieresis" horiz-adv-x="1390" unicode="Ü"/><glyph d="M1128 1802l-264 -264h-223l135 264h352zM1450 1434l-545 -842v-592h-299v592l-545 842h340l355 -574l354 574h340z" glyph-name="Yacute" horiz-adv-x="1511" unicode="Ý"/><glyph d="M682 1157q262 0 422 -121t160 -315q0 -207 -157 -321.5t-425 -114.5h-270v-285h-299v1434h299v-277h270zM686 541q14 0 56 -1t58.5 0t49.5 5t48 16t33.5 30.5t26 51.5t7.5 78q0 53 -16.5 89t-36 53.5t-60.5 26.5t-66.5 10t-76.5 1h-23h-274v-360h274z" glyph-name="Thorn" horiz-adv-x="1335" unicode="Þ"/><glyph d="M961 786q113 -6 208 -108.5t95 -228.5q0 -449 -580 -449h-109v256h113q276 0 277 193q0 190 -310 190h-80v256h80q129 0 178.5 33t49.5 106q0 72 -74 108t-168 36q-127 0 -178 -47.5t-51 -176.5v-954h-299v954q0 219 154.5 349.5t373.5 130.5q211 0 376 -111t165 -289 q0 -102 -72.5 -177t-148.5 -71z" glyph-name="germandbls" horiz-adv-x="1355" unicode="ß"/><glyph d="M791 1169h-224l-264 265h352zM848 1065h299v-1065h-299v133q-4 -41 -84 -94t-191 -53q-188 0 -344.5 145t-156.5 404q0 129 46 235.5t120.5 172t161.5 100t173 34.5q117 0 195 -46t80 -85v119zM625 242q102 0 169.5 71.5t67.5 221t-67.5 218t-169.5 68.5 q-100 0 -177 -79.5t-77 -206.5q0 -131 77 -212t177 -81z" glyph-name="agrave" unicode="à"/><glyph d="M1032 1434l-264 -265h-223l135 265h352zM848 1065h299v-1065h-299v133q-4 -41 -84 -94t-191 -53q-188 0 -344.5 145t-156.5 404q0 129 46 235.5t120.5 172t161.5 100t173 34.5q117 0 195 -46t80 -85v119zM625 242q102 0 169.5 71.5t67.5 221t-67.5 218t-169.5 68.5 q-100 0 -177 -79.5t-77 -206.5q0 -131 77 -212t177 -81z" glyph-name="aacute" unicode="á"/><glyph d="M659 1329l-210 -174h-203l209 279h405l211 -279h-203zM848 1065h299v-1065h-299v133q-4 -41 -84 -94t-191 -53q-188 0 -344.5 145t-156.5 404q0 129 46 235.5t120.5 172t161.5 100t173 34.5q117 0 195 -46t80 -85v119zM625 242q102 0 169.5 71.5t67.5 221t-67.5 218 t-169.5 68.5q-100 0 -177 -79.5t-77 -206.5q0 -131 77 -212t177 -81z" glyph-name="acircumflex" unicode="â"/><glyph d="M436 1325q-29 0 -56.5 -18.5t-25.5 -44.5h-108q0 117 63.5 194.5t186.5 77.5q78 0 202.5 -71.5t171.5 -71.5q31 0 59.5 12t28.5 31h111q0 -117 -63.5 -196t-180.5 -79q-78 0 -208 83t-181 83zM848 1065h299v-1065h-299v133q-4 -41 -84 -94t-191 -53q-188 0 -344.5 145 t-156.5 404q0 129 46 235.5t120.5 172t161.5 100t173 34.5q117 0 195 -46t80 -85v119zM625 242q102 0 169.5 71.5t67.5 221t-67.5 218t-169.5 68.5q-100 0 -177 -79.5t-77 -206.5q0 -131 77 -212t177 -81z" glyph-name="atilde" unicode="ã"/><glyph d="M549 1434v-244h-305v244h305zM1077 1434v-244h-305v244h305zM848 1065h299v-1065h-299v133q-4 -41 -84 -94t-191 -53q-188 0 -344.5 145t-156.5 404q0 129 46 235.5t120.5 172t161.5 100t173 34.5q117 0 195 -46t80 -85v119zM625 242q102 0 169.5 71.5t67.5 221 t-67.5 218t-169.5 68.5q-100 0 -177 -79.5t-77 -206.5q0 -131 77 -212t177 -81z" glyph-name="adieresis" unicode="ä"/><glyph d="M662 1192q-98 0 -168 68.5t-70 160.5q0 98 68.5 167t169.5 69q94 0 162.5 -69.5t68.5 -166.5q0 -92 -68.5 -160.5t-162.5 -68.5zM657 1479q-23 0 -37 -15.5t-14 -38.5q0 -20 15.5 -34.5t36 -14.5t37 14.5t16.5 34.5q0 23 -17 38.5t-37 15.5zM848 1065h299v-1065h-299v133 q-4 -41 -84 -94t-191 -53q-188 0 -344.5 145t-156.5 404q0 129 46 235.5t120.5 172t161.5 100t173 34.5q117 0 195 -46t80 -85v119zM625 242q102 0 169.5 71.5t67.5 221t-67.5 218t-169.5 68.5q-100 0 -177 -79.5t-77 -206.5q0 -131 77 -212t177 -81z" glyph-name="aring" unicode="å"/><glyph d="M1925 528q0 -51 -8 -98h-754q18 -88 93 -138t163 -50q104 0 207 65l176 -166q-145 -156 -383 -155q-137 0 -272 67v-53h-299v133q-4 -41 -84 -94t-191 -53q-188 0 -344.5 145t-156.5 404q0 129 46 235.5t120.5 172t161.5 100t173 34.5q117 0 195 -46t80 -85v119h299v-49 q123 61 248 61q88 0 179 -35.5t171 -101.5t130 -174.5t50 -237.5zM625 242q90 0 154.5 57t78.5 174q-2 16 -2 55q0 12 1 33t1 31q-12 119 -76.5 174t-156.5 55q-100 0 -177 -79.5t-77 -206.5q0 -131 77 -212t177 -81zM1167 637h459q-20 88 -84.5 136t-142.5 48 q-82 0 -148 -48t-84 -136z" glyph-name="ae" horiz-adv-x="2007" unicode="æ"/><glyph d="M1071 231q-117 -193 -340 -237l-100 -105q82 -18 137 -73.5t55 -130.5q0 -121 -124 -168t-328 -33l32 88q104 16 147.5 39.5t43.5 73.5q0 39 -33 58t-72 -5l-30 -33l-70 125l96 172h17q-172 43 -296 180t-124 348q0 133 52 241t135 172.5t177.5 99t184.5 34.5 q131 0 246.5 -61.5t191.5 -184.5l-240 -108q-70 98 -198 98q-98 0 -176 -78.5t-78 -212.5q0 -131 77.5 -209.5t176.5 -78.5q129 0 198 98z" glyph-name="ccedilla" horiz-adv-x="1126" unicode="ç"/><glyph d="M252 1434h352l135 -265h-223zM610 1077q88 0 179.5 -35.5t171 -101.5t130 -174.5t50.5 -237.5q0 -51 -8 -98h-754q20 -88 95 -138t161 -50q106 0 209 65l174 -166q-145 -156 -383 -155q-92 0 -188.5 33.5t-181.5 97t-139 171t-54 241t51 242t132 173t173 99t182 34.5z M614 821q-82 0 -146.5 -48t-84.5 -136h459q-20 88 -85 136t-143 48z" glyph-name="egrave" horiz-adv-x="1222" unicode="è"/><glyph d="M981 1434l-264 -265h-223l135 265h352zM610 1077q88 0 179.5 -35.5t171 -101.5t130 -174.5t50.5 -237.5q0 -51 -8 -98h-754q20 -88 95 -138t161 -50q106 0 209 65l174 -166q-145 -156 -383 -155q-92 0 -188.5 33.5t-181.5 97t-139 171t-54 241t51 242t132 173t173 99 t182 34.5zM614 821q-82 0 -146.5 -48t-84.5 -136h459q-20 88 -85 136t-143 48z" glyph-name="eacute" horiz-adv-x="1222" unicode="é"/><glyph d="M809 1434l211 -279h-203l-209 174l-211 -174h-202l208 279h406zM610 1077q88 0 179.5 -35.5t171 -101.5t130 -174.5t50.5 -237.5q0 -51 -8 -98h-754q20 -88 95 -138t161 -50q106 0 209 65l174 -166q-145 -156 -383 -155q-92 0 -188.5 33.5t-181.5 97t-139 171t-54 241 t51 242t132 173t173 99t182 34.5zM614 821q-82 0 -146.5 -48t-84.5 -136h459q-20 88 -85 136t-143 48z" glyph-name="ecircumflex" horiz-adv-x="1222" unicode="ê"/><glyph d="M498 1434v-244h-305v244h305zM1026 1434v-244h-305v244h305zM610 1077q88 0 179.5 -35.5t171 -101.5t130 -174.5t50.5 -237.5q0 -51 -8 -98h-754q20 -88 95 -138t161 -50q106 0 209 65l174 -166q-145 -156 -383 -155q-92 0 -188.5 33.5t-181.5 97t-139 171t-54 241 t51 242t132 173t173 99t182 34.5zM614 821q-82 0 -146.5 -48t-84.5 -136h459q-20 88 -85 136t-143 48z" glyph-name="edieresis" horiz-adv-x="1222" unicode="ë"/><glyph d="M-53 1434h352l135 -265h-223zM453 1065v-1065h-299v1065h299z" glyph-name="igrave" horiz-adv-x="606" unicode="ì"/><glyph d="M676 1434l-264 -265h-224l136 265h352zM453 1065v-1065h-299v1065h299z" glyph-name="iacute" horiz-adv-x="606" unicode="í"/><glyph d="M504 1434l211 -279h-203l-209 174l-211 -174h-203l209 279h406zM453 1065v-1065h-299v1065h299z" glyph-name="icircumflex" horiz-adv-x="606" unicode="î"/><glyph d="M193 1434v-244h-306v244h306zM721 1434v-244h-305v244h305zM453 1065v-1065h-299v1065h299z" glyph-name="idieresis" horiz-adv-x="606" unicode="ï"/><glyph d="M946 1169q106 -162 145 -310t39 -343q0 -260 -156.5 -398t-383.5 -138q-211 0 -364.5 139t-153.5 397q0 268 142 408.5t376 140.5q84 0 112 -14l-51 67l-157 -20v239l-70 97h332l30 -41l160 22v-246zM590 236q82 0 161.5 71.5t79.5 208.5q0 152 -69.5 221.5t-171.5 69.5 q-90 0 -154.5 -69.5t-64.5 -221.5q0 -135 76.5 -207.5t142.5 -72.5z" glyph-name="eth" horiz-adv-x="1243" unicode="ð"/><glyph d="M471 1534q78 0 203 -71.5t172 -71.5q31 0 59.5 12t28.5 31h110q0 -117 -63 -196t-180 -79q-78 0 -208 83t-181 83q-29 0 -56.5 -18.5t-25.5 -44.5h-109q0 117 63.5 194.5t186.5 77.5zM762 1075q168 0 285.5 -114.5t117.5 -348.5v-612h-299v592q0 231 -176 231 q-104 0 -175 -71.5t-93 -147.5v-604h-299v1065h299v-193q27 63 115 133t225 70z" glyph-name="ntilde" horiz-adv-x="1267" unicode="ñ"/><glyph d="M270 1434h353l135 -265h-223zM627 1077q86 0 178 -34.5t176 -99t137 -173t53 -242t-53 -241t-137 -171t-176 -97t-178 -33.5t-178.5 33.5t-176.5 97t-137 171t-53 241t53 242t137 173t176.5 99t178.5 34.5zM626.5 817q-98.5 0 -172 -76.5t-73.5 -212.5 q0 -131 73.5 -206.5t172 -75.5t172 75.5t73.5 206.5q0 135 -73.5 212t-172 77z" glyph-name="ograve" horiz-adv-x="1253" unicode="ò"/><glyph d="M999 1434l-264 -265h-223l135 265h352zM627 1077q86 0 178 -34.5t176 -99t137 -173t53 -242t-53 -241t-137 -171t-176 -97t-178 -33.5t-178.5 33.5t-176.5 97t-137 171t-53 241t53 242t137 173t176.5 99t178.5 34.5zM626.5 817q-98.5 0 -172 -76.5t-73.5 -212.5 q0 -131 73.5 -206.5t172 -75.5t172 75.5t73.5 206.5q0 135 -73.5 212t-172 77z" glyph-name="oacute" horiz-adv-x="1253" unicode="ó"/><glyph d="M827 1434l211 -279h-202l-209 174l-211 -174h-203l209 279h405zM627 1077q86 0 178 -34.5t176 -99t137 -173t53 -242t-53 -241t-137 -171t-176 -97t-178 -33.5t-178.5 33.5t-176.5 97t-137 171t-53 241t53 242t137 173t176.5 99t178.5 34.5zM626.5 817 q-98.5 0 -172 -76.5t-73.5 -212.5q0 -131 73.5 -206.5t172 -75.5t172 75.5t73.5 206.5q0 135 -73.5 212t-172 77z" glyph-name="ocircumflex" horiz-adv-x="1253" unicode="ô"/><glyph d="M463 1534q78 0 203 -71.5t172 -71.5q31 0 59.5 12t28.5 31h110q0 -117 -63.5 -196t-179.5 -79q-78 0 -208 83t-182 83q-29 0 -56.5 -18.5t-24.5 -44.5h-109q0 117 63.5 194.5t186.5 77.5zM627 1077q86 0 178 -34.5t176 -99t137 -173t53 -242t-53 -241t-137 -171t-176 -97 t-178 -33.5t-178.5 33.5t-176.5 97t-137 171t-53 241t53 242t137 173t176.5 99t178.5 34.5zM626.5 817q-98.5 0 -172 -76.5t-73.5 -212.5q0 -131 73.5 -206.5t172 -75.5t172 75.5t73.5 206.5q0 135 -73.5 212t-172 77z" glyph-name="otilde" horiz-adv-x="1253" unicode="õ"/><glyph d="M516 1434v-244h-305v244h305zM1044 1434v-244h-305v244h305zM627 1077q86 0 178 -34.5t176 -99t137 -173t53 -242t-53 -241t-137 -171t-176 -97t-178 -33.5t-178.5 33.5t-176.5 97t-137 171t-53 241t53 242t137 173t176.5 99t178.5 34.5zM626.5 817q-98.5 0 -172 -76.5 t-73.5 -212.5q0 -131 73.5 -206.5t172 -75.5t172 75.5t73.5 206.5q0 135 -73.5 212t-172 77z" glyph-name="odieresis" horiz-adv-x="1253" unicode="ö"/><glyph d="M608 1061v-324h-329v324h329zM778 684v-246h-686v246h686zM608 408v-326h-329v326h329z" glyph-name="divide" horiz-adv-x="870" unicode="÷"/><glyph d="M981 944q190 -162 190 -416q0 -133 -53 -240.5t-137 -171t-176 -97t-178 -33.5q-43 0 -101 10l-47 -98h-303l103 215q-197 154 -197 415q0 133 53 242t137 173.5t176.5 99t178.5 34.5q53 0 108 -12l58 119h303zM381 528q0 -80 29 -141l206 430q-94 -4 -164.5 -81 t-70.5 -208zM645 246q92 8 159.5 82.5t67.5 199.5q0 74 -26 138z" glyph-name="oslash" horiz-adv-x="1253" unicode="ø"/><glyph d="M754 1169h-224l-264 265h352zM846 1065h299v-1065h-299v215q-20 -76 -114.5 -152.5t-235.5 -76.5q-170 0 -282 109.5t-112 353.5v616h299v-616q0 -207 172 -207q98 0 183.5 98t89.5 168v557z" glyph-name="ugrave" horiz-adv-x="1257" unicode="ù"/><glyph d="M995 1434l-264 -265h-223l135 265h352zM846 1065h299v-1065h-299v215q-20 -76 -114.5 -152.5t-235.5 -76.5q-170 0 -282 109.5t-112 353.5v616h299v-616q0 -207 172 -207q98 0 183.5 98t89.5 168v557z" glyph-name="uacute" horiz-adv-x="1257" unicode="ú"/><glyph d="M623 1329l-211 -174h-203l209 279h405l211 -279h-203zM846 1065h299v-1065h-299v215q-20 -76 -114.5 -152.5t-235.5 -76.5q-170 0 -282 109.5t-112 353.5v616h299v-616q0 -207 172 -207q98 0 183.5 98t89.5 168v557z" glyph-name="ucircumflex" horiz-adv-x="1257" unicode="û"/><glyph d="M510 1434v-244h-305v244h305zM1038 1434v-244h-305v244h305zM846 1065h299v-1065h-299v215q-20 -76 -114.5 -152.5t-235.5 -76.5q-170 0 -282 109.5t-112 353.5v616h299v-616q0 -207 172 -207q98 0 183.5 98t89.5 168v557z" glyph-name="udieresis" horiz-adv-x="1257" unicode="ü"/><glyph d="M1008 1434l-265 -265h-223l135 265h353zM915 1065h293l-590 -1454h-290l168 418l-451 1036h295l297 -686z" glyph-name="yacute" horiz-adv-x="1253" unicode="ý"/><glyph d="M688 1077q86 0 173 -34.5t162 -100t121 -172t46 -235.5q0 -133 -46 -242t-121 -173.5t-162 -99t-173 -34.5h-6h-8q-90 0 -160 34.5t-100 79.5v-100h-13v-389h-299v389h-2v1065h15v369h299v-455q29 39 98.5 68.5t161.5 29.5h6h8zM399 534.5q0 -145.5 65.5 -217 t164.5 -75.5q100 4 174 84t74 209q0 125 -75 203.5t-173 82.5q-100 -4 -165 -72.5t-65 -214z" glyph-name="thorn" unicode="þ"/><glyph d="M524 1434v-244h-305v244h305zM1053 1434v-244h-305v244h305zM915 1065h293l-590 -1454h-290l168 418l-451 1036h295l297 -686z" glyph-name="ydieresis" horiz-adv-x="1253" unicode="ÿ"/><glyph d="M1151 1802v-241h-774v241h774zM1139 0l-88 205h-574l-90 -205h-336l707 1450h12l705 -1450h-336zM584 451h358l-178 407z" glyph-name="Amacron" horiz-adv-x="1525" unicode="Ā"/><glyph d="M1047 1434v-242h-775v242h775zM848 1065h299v-1065h-299v133q-4 -41 -84 -94t-191 -53q-188 0 -344.5 145t-156.5 404q0 129 46 235.5t120.5 172t161.5 100t173 34.5q117 0 195 -46t80 -85v119zM625 242q102 0 169.5 71.5t67.5 221t-67.5 218t-169.5 68.5 q-100 0 -177 -79.5t-77 -206.5q0 -131 77 -212t177 -81z" glyph-name="amacron" unicode="ā"/><glyph d="M764 1505q-147 0 -238.5 91.5t-91.5 205.5h180q8 -39 48 -67.5t101.5 -28.5t100.5 28.5t47 67.5h181q0 -121 -82 -209t-246 -88zM1139 0l-88 205h-574l-90 -205h-336l707 1450h12l705 -1450h-336zM584 451h358l-178 407z" glyph-name="Abreve" horiz-adv-x="1525" unicode="Ă"/><glyph d="M659 1137q-147 0 -238 91t-91 206h180q8 -39 48 -68t101.5 -29t100.5 29t47 68h180q0 -121 -82 -209t-246 -88zM848 1065h299v-1065h-299v133q-4 -41 -84 -94t-191 -53q-188 0 -344.5 145t-156.5 404q0 129 46 235.5t120.5 172t161.5 100t173 34.5q117 0 195 -46t80 -85 v119zM625 242q102 0 169.5 71.5t67.5 221t-67.5 218t-169.5 68.5q-100 0 -177 -79.5t-77 -206.5q0 -131 77 -212t177 -81z" glyph-name="abreve" unicode="ă"/><glyph d="M1470 0q-201 -57 -265 -93t-64 -91q0 -63 56 -90t103 2l66 -134q-51 -29 -137 -32.5t-169 16t-143.5 74.5t-60.5 133q0 96 76 150.5t201 64.5h6l-88 205h-574l-90 -205h-336l707 1450h12l705 -1450h-5zM584 451h358l-178 407z" glyph-name="Aogonek" horiz-adv-x="1525" unicode="Ą"/><glyph d="M1147 0q-168 -57 -229.5 -95t-61.5 -89q0 -63 57.5 -90t104.5 2l63 -134q-51 -29 -136 -32.5t-169 16t-144.5 74.5t-60.5 133q0 96 76 150.5t201 64.5v133q-4 -41 -84 -94t-191 -53q-188 0 -344.5 145t-156.5 404q0 129 46 235.5t120.5 172t161.5 100t173 34.5 q117 0 195 -46t80 -85v119h299v-1065zM625 242q102 0 169.5 71.5t67.5 221t-67.5 218t-169.5 68.5q-100 0 -177 -79.5t-77 -206.5q0 -131 77 -212t177 -81z" glyph-name="aogonek" unicode="ą"/><glyph d="M1153 1802l-264 -264h-223l135 264h352zM815 1448q283 0 477 -178l-188 -228q-125 106 -283 107q-162 0 -276.5 -127t-114.5 -305q0 -180 113.5 -306t277.5 -126q147 0 289 112l186 -227q-201 -184 -481 -184q-279 0 -501 208.5t-222 518.5q0 209 106.5 381t271.5 263 t345 91z" glyph-name="Cacute" horiz-adv-x="1368" unicode="Ć"/><glyph d="M954 1434l-264 -265h-223l135 265h352zM631 1077q131 0 246.5 -61.5t191.5 -184.5l-240 -108q-70 98 -198 98q-98 0 -176 -78.5t-78 -212.5q0 -131 77.5 -209.5t176.5 -78.5q129 0 198 98l242 -109q-76 -123 -192.5 -184t-247.5 -61q-72 0 -146.5 20.5t-147.5 65.5 t-129 107.5t-91 153.5t-35 197q0 133 52 241t135 172.5t177.5 99t184.5 34.5z" glyph-name="cacute" horiz-adv-x="1126" unicode="ć"/><glyph d="M934 1802v-243h-305v243h305zM815 1448q283 0 477 -178l-188 -228q-125 106 -283 107q-162 0 -276.5 -127t-114.5 -305q0 -180 113.5 -306t277.5 -126q147 0 289 112l186 -227q-201 -184 -481 -184q-279 0 -501 208.5t-222 518.5q0 209 106.5 381t271.5 263t345 91z" glyph-name="Cdotaccent" horiz-adv-x="1368" unicode="Ċ"/><glyph d="M733 1434v-244h-305v244h305zM631 1077q131 0 246.5 -61.5t191.5 -184.5l-240 -108q-70 98 -198 98q-98 0 -176 -78.5t-78 -212.5q0 -131 77.5 -209.5t176.5 -78.5q129 0 198 98l242 -109q-76 -123 -192.5 -184t-247.5 -61q-72 0 -146.5 20.5t-147.5 65.5t-129 107.5 t-91 153.5t-35 197q0 133 52 241t135 172.5t177.5 99t184.5 34.5z" glyph-name="cdotaccent" horiz-adv-x="1126" unicode="ċ"/><glyph d="M981 1524h-406l-208 278h202l211 -174l209 174h203zM815 1448q283 0 477 -178l-188 -228q-125 106 -283 107q-162 0 -276.5 -127t-114.5 -305q0 -180 113.5 -306t277.5 -126q147 0 289 112l186 -227q-201 -184 -481 -184q-279 0 -501 208.5t-222 518.5q0 209 106.5 381 t271.5 263t345 91z" glyph-name="Ccaron" horiz-adv-x="1368" unicode="Č"/><glyph d="M782 1155h-405l-209 279h203l211 -174l209 174h202zM631 1077q131 0 246.5 -61.5t191.5 -184.5l-240 -108q-70 98 -198 98q-98 0 -176 -78.5t-78 -212.5q0 -131 77.5 -209.5t176.5 -78.5q129 0 198 98l242 -109q-76 -123 -192.5 -184t-247.5 -61q-72 0 -146.5 20.5 t-147.5 65.5t-129 107.5t-91 153.5t-35 197q0 133 52 241t135 172.5t177.5 99t184.5 34.5z" glyph-name="ccaron" horiz-adv-x="1126" unicode="č"/><glyph d="M911 1524h-405l-209 278h203l211 -174l209 174h202zM633 1434q301 0 510 -207t209 -502q0 -305 -208 -515t-511 -210h-520v1434h520zM633 260q195 0 302 130t107 335q0 195 -107.5 322t-301.5 127h-213v-914h213z" glyph-name="Dcaron" horiz-adv-x="1443" unicode="Ď"/><glyph d="M850 1065v369h297v-529v-905h-299v131q-6 -41 -85 -93t-190 -52q-86 0 -173 34.5t-161.5 99t-120.5 173t-46 242.5q0 129 46 235.5t120.5 172t161.5 100t173 34.5q115 0 194 -46t81 -85v119h2zM1370 1434h352l-264 -265h-223zM625 242q102 0 169.5 71.5t67.5 221 t-67.5 218t-169.5 68.5q-100 0 -177 -79.5t-77 -206.5q0 -131 77 -212t177 -81z" glyph-name="dcaron" horiz-adv-x="1763" unicode="ď"/><glyph d="M741 1434q301 0 510 -207t209 -502q0 -305 -208 -515t-511 -210h-520v578h-108v245h108v611h520zM741 260q195 0 302.5 130t107.5 335q0 195 -107.5 322t-302.5 127h-213v-351h220v-245h-220v-318h213z" glyph-name="Dcroat" horiz-adv-x="1552" unicode="Đ"/><glyph d="M1307 1335v-241h-160v-189v-905h-299v131q-6 -41 -85 -93t-190 -52q-86 0 -173 34.5t-161.5 99t-120.5 173t-46 242.5q0 129 46 235.5t120.5 172t161.5 100t173 34.5q115 0 194 -46t81 -85v119h2v29h-318v241h318v99h297v-99h160zM625 242q102 0 169.5 71.5t67.5 221 t-67.5 218t-169.5 68.5q-100 0 -177 -79.5t-77 -206.5q0 -131 77 -212t177 -81z" glyph-name="dcroat" horiz-adv-x="1357" unicode="đ"/><glyph d="M995 1802v-241h-774v241h774zM428 268h666v-268h-981v1434h956v-269h-641v-311h440v-268h-440v-318z" glyph-name="Emacron" horiz-adv-x="1206" unicode="Ē"/><glyph d="M995 1434v-242h-774v242h774zM610 1077q88 0 179.5 -35.5t171 -101.5t130 -174.5t50.5 -237.5q0 -51 -8 -98h-754q20 -88 95 -138t161 -50q106 0 209 65l174 -166q-145 -156 -383 -155q-92 0 -188.5 33.5t-181.5 97t-139 171t-54 241t51 242t132 173t173 99t182 34.5z M614 821q-82 0 -146.5 -48t-84.5 -136h459q-20 88 -85 136t-143 48z" glyph-name="emacron" horiz-adv-x="1222" unicode="ē"/><glyph d="M762 1802v-243h-305v243h305zM428 268h666v-268h-981v1434h956v-269h-641v-311h440v-268h-440v-318z" glyph-name="Edotaccent" horiz-adv-x="1206" unicode="Ė"/><glyph d="M762 1434v-244h-305v244h305zM610 1077q88 0 179.5 -35.5t171 -101.5t130 -174.5t50.5 -237.5q0 -51 -8 -98h-754q20 -88 95 -138t161 -50q106 0 209 65l174 -166q-145 -156 -383 -155q-92 0 -188.5 33.5t-181.5 97t-139 171t-54 241t51 242t132 173t173 99t182 34.5z M614 821q-82 0 -146.5 -48t-84.5 -136h459q-20 88 -85 136t-143 48z" glyph-name="edotaccent" horiz-adv-x="1222" unicode="ė"/><glyph d="M1094 0q-156 -57 -213.5 -96t-57.5 -88q0 -63 57.5 -90t102.5 2l66 -134q-51 -29 -137.5 -32.5t-169.5 16t-143 74.5t-60 133q0 96 75.5 150.5t200.5 64.5h-702v1434h956v-269h-641v-311h440v-268h-440v-318h666v-268z" glyph-name="Eogonek" horiz-adv-x="1206" unicode="Ę"/><glyph d="M1141 528q0 -51 -8 -98h-754q20 -88 95 -138t161 -50q106 0 209 65l174 -166l-25 -24h19q-143 -109 -194.5 -169.5t-51.5 -125.5q0 -68 56.5 -95.5t107.5 -2.5l63 -130q-51 -29 -136 -31.5t-168 19t-143.5 82t-60.5 148.5q0 100 107 176q-199 16 -359.5 157.5 t-160.5 382.5q0 133 51 242t132 173.5t173 99t182 34.5q88 0 179.5 -35.5t171 -101.5t130 -174.5t50.5 -237.5zM383 637h459q-20 88 -85 136t-143 48q-82 0 -146.5 -48t-84.5 -136z" glyph-name="eogonek" horiz-adv-x="1257" unicode="ę"/><glyph d="M809 1524h-406l-208 278h202l211 -174l209 174h203zM428 268h666v-268h-981v1434h956v-269h-641v-311h440v-268h-440v-318z" glyph-name="Ecaron" horiz-adv-x="1206" unicode="Ě"/><glyph d="M809 1155h-406l-208 279h202l211 -174l209 174h203zM610 1077q88 0 179.5 -35.5t171 -101.5t130 -174.5t50.5 -237.5q0 -51 -8 -98h-754q20 -88 95 -138t161 -50q106 0 209 65l174 -166q-145 -156 -383 -155q-92 0 -188.5 33.5t-181.5 97t-139 171t-54 241t51 242 t132 173t173 99t182 34.5zM614 821q-82 0 -146.5 -48t-84.5 -136h459q-20 88 -85 136t-143 48z" glyph-name="ecaron" horiz-adv-x="1222" unicode="ě"/><glyph d="M836 1505q-147 0 -238.5 91.5t-91.5 205.5h180q8 -39 48 -67.5t101.5 -28.5t100.5 28.5t47 67.5h180q0 -121 -81.5 -209t-245.5 -88zM1493 729q10 -168 -38 -309t-139 -235.5t-215 -146.5t-265 -52q-193 0 -362 91t-275.5 261t-106.5 379q0 313 222.5 522t514.5 209 q301 0 482 -205l-189 -213q-109 119 -286 119q-164 0 -284 -123t-120 -305t123 -309t289 -127q221 0 311 178h-162v266h412h88z" glyph-name="Gbreve" horiz-adv-x="1564" unicode="Ğ"/><glyph d="M606 1128q-147 0 -238.5 91.5t-91.5 205.5h181q8 -39 48 -67.5t101.5 -28.5t100 28.5t47.5 67.5h180q0 -121 -82 -209t-246 -88zM848 1065h299v-1065q0 -111 -52.5 -197t-134 -132t-166.5 -68.5t-163 -22.5q-35 0 -68 3t-61.5 9.5t-50 11.5t-46 14t-35 14.5t-33 15.5 t-26.5 12v258q178 -86 320 -86q104 0 160.5 52.5t56.5 115.5v133q-4 -41 -84 -94t-191 -53q-188 0 -344.5 145t-156.5 404q0 129 46 235.5t120.5 172t161.5 100t173 34.5q117 0 195 -46t80 -85v119zM625 242q102 0 169.5 71.5t67.5 221t-67.5 218t-169.5 68.5 q-100 0 -177 -79.5t-77 -206.5q0 -131 77 -212t177 -81z" glyph-name="gbreve" unicode="ğ"/><glyph d="M989 1802v-243h-305v243h305zM1493 729q10 -168 -38 -309t-139 -235.5t-215 -146.5t-265 -52q-193 0 -362 91t-275.5 261t-106.5 379q0 313 222.5 522t514.5 209q301 0 482 -205l-189 -213q-109 119 -286 119q-164 0 -284 -123t-120 -305t123 -309t289 -127 q221 0 311 178h-162v266h412h88z" glyph-name="Gdotaccent" horiz-adv-x="1564" unicode="Ġ"/><glyph d="M760 1425v-243h-305v243h305zM848 1065h299v-1065q0 -111 -52.5 -197t-134 -132t-166.5 -68.5t-163 -22.5q-35 0 -68 3t-61.5 9.5t-50 11.5t-46 14t-35 14.5t-33 15.5t-26.5 12v258q178 -86 320 -86q104 0 160.5 52.5t56.5 115.5v133q-4 -41 -84 -94t-191 -53 q-188 0 -344.5 145t-156.5 404q0 129 46 235.5t120.5 172t161.5 100t173 34.5q117 0 195 -46t80 -85v119zM625 242q102 0 169.5 71.5t67.5 221t-67.5 218t-169.5 68.5q-100 0 -177 -79.5t-77 -206.5q0 -131 77 -212t177 -81z" glyph-name="gdotaccent" unicode="ġ"/><glyph d="M1493 729q10 -168 -38 -309t-139 -235.5t-215 -146.5t-265 -52q-193 0 -362 91t-275.5 261t-106.5 379q0 313 222.5 522t514.5 209q301 0 482 -205l-189 -213q-109 119 -286 119q-164 0 -284 -123t-120 -305t123 -309t289 -127q221 0 311 178h-162v266h412h88zM514 -539 l104 486h383l-225 -486h-262z" glyph-name="Gcommaaccent" horiz-adv-x="1564" unicode="Ģ"/><glyph d="M897 1638l-104 -483h-383l225 483h262zM848 1065h299v-1065q0 -111 -52.5 -197t-134 -132t-166.5 -68.5t-163 -22.5q-35 0 -68 3t-61.5 9.5t-50 11.5t-46 14t-35 14.5t-33 15.5t-26.5 12v258q178 -86 320 -86q104 0 160.5 52.5t56.5 115.5v133q-4 -41 -84 -94t-191 -53 q-188 0 -344.5 145t-156.5 404q0 129 46 235.5t120.5 172t161.5 100t173 34.5q117 0 195 -46t80 -85v119zM625 242q102 0 169.5 71.5t67.5 221t-67.5 218t-169.5 68.5q-100 0 -177 -79.5t-77 -206.5q0 -131 77 -212t177 -81z" glyph-name="gcommaaccent" unicode="ģ"/><glyph d="M1067 1434h307v-1434h-307v584h-623v-584h-307v1434h307v-238h623v238zM444 848h623v102h-623v-102z" glyph-name="Hbar" horiz-adv-x="1511" unicode="Ħ"/><glyph d="M856 1075q168 0 286 -114.5t118 -348.5v-612h-299v592q0 231 -177 231q-104 0 -174.5 -71.5t-93.5 -147.5v-604h-299v1012h-125v245h125v177h299v-177h191v-210q67 28 149 28zM516 872q31 78 125 140h-125v-140z" glyph-name="hbar" horiz-adv-x="1361" unicode="ħ"/><glyph d="M662 1802v-241h-775v241h775zM436 1434v-1434h-313v1434h313z" glyph-name="Imacron" horiz-adv-x="559" unicode="Ī"/><glyph d="M690 1434v-242h-774v242h774zM453 1065v-1065h-299v1065h299z" glyph-name="imacron" horiz-adv-x="606" unicode="ī"/><glyph d="M127 1434h313v-1434h-2q-164 -57 -223 -96t-59 -88q0 -63 57 -90t102 2l66 -134q-51 -29 -137 -32.5t-169 16t-143.5 74.5t-60.5 133q0 94 72.5 149.5t181.5 65.5h2v1434z" glyph-name="Iogonek" horiz-adv-x="561" unicode="Į"/><glyph d="M152 1434h305v-244h-305v244zM455 0q-156 -57 -213.5 -96t-57.5 -88q0 -63 57.5 -90t102.5 2l66 -134q-51 -29 -137.5 -32.5t-169.5 16t-143 74.5t-60 133q0 96 75.5 150.5t200.5 64.5h-22v1065h299v-1065h2z" glyph-name="iogonek" horiz-adv-x="606" unicode="į"/><glyph d="M428 1802v-243h-305v243h305zM436 1434v-1434h-313v1434h313z" glyph-name="Idotaccent" horiz-adv-x="559" unicode="İ"/><glyph d="M453 1065v-1065h-299v1065h299z" glyph-name="dotlessi" horiz-adv-x="606" unicode="ı"/><glyph d="M436 1434v-1434h-313v1434h313zM1548 1434v-955q0 -135 -46 -235.5t-121.5 -154.5t-156.5 -78.5t-163 -24.5q-281 0 -430 174l196 194q80 -96 217 -96q37 0 67 7t64.5 27.5t54 71t19.5 123.5v947h299z" glyph-name="IJ" horiz-adv-x="1671" unicode="Ĳ"/><glyph d="M412 1434v-244h-306v244h306zM956 1434v-244h-299v244h299zM412 1065v-1065h-306v1065h306zM956 1065v-1165q0 -160 -86 -240t-239 -80q-84 0 -225 49v299q25 -6 56.5 -15t48.5 -14t38.5 -9.5t40.5 -4.5q68 0 67 113v1067h299z" glyph-name="ij" horiz-adv-x="1062" unicode="ĳ"/><glyph d="M1454 1434l-559 -705l627 -729h-361l-440 514l-268 -326v-188h-310v1434h310v-813l641 813h360zM516 -539l105 486h383l-226 -486h-262z" glyph-name="Kcommaaccent" horiz-adv-x="1593" unicode="Ķ"/><glyph d="M690 618l518 -618h-344l-358 426l-84 -88v-338h-299v377v1057h299v-736l342 367h354zM354 -539l105 486h383l-226 -486h-262z" glyph-name="kcommaaccent" unicode="ķ"/><glyph d="M653 1798l-262 -264h-225l137 264h350zM420 256h594v-256h-901v1434h307v-1178z" glyph-name="Lacute" horiz-adv-x="1105" unicode="Ĺ"/><glyph d="M649 1802l-264 -264h-223l135 264h352zM428 1434v-1434h-305v1434h305z" glyph-name="lacute" horiz-adv-x="550" unicode="ĺ"/><glyph d="M420 256h594v-256h-901v1434h307v-1178zM256 -539l104 486h383l-225 -486h-262z" glyph-name="Lcommaaccent" horiz-adv-x="1105" unicode="Ļ"/><glyph d="M428 1434v-1434h-305v1434h305zM-12 -539l104 486h383l-225 -486h-262z" glyph-name="lcommaaccent" horiz-adv-x="550" unicode="ļ"/><glyph d="M420 1434v-1178h594v-256h-901v1434h307zM1057 1434l-226 -502h-264l105 502h385z" glyph-name="Lcaron" horiz-adv-x="1105" unicode="Ľ"/><glyph d="M428 1434v-1434h-305v1434h305zM512 932l104 502h383l-225 -502h-262z" glyph-name="lcaron" horiz-adv-x="987" unicode="ľ"/><glyph d="M420 1434v-1178h594v-256h-901v1434h307zM692 913h330v-323h-330v323z" glyph-name="Ldot" horiz-adv-x="1105" unicode="Ŀ"/><glyph d="M428 1434v-1434h-305v1434h305zM887 909v-323h-330v323h330z" glyph-name="ldot" horiz-adv-x="1009" unicode="ŀ"/><glyph d="M535 256h593v-256h-901v391l-114 -121v299l114 121v744h308v-420l165 176h2v-297l-167 -178v-459z" glyph-name="Lslash" horiz-adv-x="1220" unicode="Ł"/><glyph d="M621 1163v-297l-115 -121v-745h-305v424l-115 -121v299l115 121v711h305v-390l112 119h3z" glyph-name="lslash" horiz-adv-x="706" unicode="ł"/><glyph d="M1071 1802l-264 -264h-223l135 264h352zM1280 1434v-1446h-10l-850 792v-780h-307v1446h8l852 -793v781h307z" glyph-name="Nacute" horiz-adv-x="1392" unicode="Ń"/><glyph d="M1006 1434l-265 -265h-223l135 265h353zM762 1075q168 0 285.5 -114.5t117.5 -348.5v-612h-299v592q0 231 -176 231q-104 0 -175 -71.5t-93 -147.5v-604h-299v1065h299v-193q27 63 115 133t225 70z" glyph-name="nacute" horiz-adv-x="1267" unicode="ń"/><glyph d="M1280 1434v-1446h-10l-850 792v-780h-307v1446h8l852 -793v781h307zM410 -539l104 486h383l-225 -486h-262z" glyph-name="Ncommaaccent" horiz-adv-x="1392" unicode="Ņ"/><glyph d="M762 1075q168 0 285.5 -114.5t117.5 -348.5v-612h-299v592q0 231 -176 231q-104 0 -175 -71.5t-93 -147.5v-604h-299v1065h299v-193q27 63 115 133t225 70zM346 -539l105 486h383l-226 -486h-262z" glyph-name="ncommaaccent" horiz-adv-x="1267" unicode="ņ"/><glyph d="M899 1524h-405l-209 278h202l211 -174l209 174h203zM1280 1434v-1446h-10l-850 792v-780h-307v1446h8l852 -793v781h307z" glyph-name="Ncaron" horiz-adv-x="1392" unicode="Ň"/><glyph d="M836 1155h-406l-209 279h203l211 -174l209 174h203zM762 1075q168 0 285.5 -114.5t117.5 -348.5v-612h-299v592q0 231 -176 231q-104 0 -175 -71.5t-93 -147.5v-604h-299v1065h299v-193q27 63 115 133t225 70z" glyph-name="ncaron" horiz-adv-x="1267" unicode="ň"/><glyph d="M1233 1434v-1196v-164q0 -135 -46 -235.5t-122 -155t-156 -79t-161 -24.5q-283 0 -433 174l199 195q76 -96 217 -96q37 0 66.5 7t63.5 27.5t53.5 70.5t19.5 124v166l-508 465v-713h-313v1434h24l785 -711v711h311z" glyph-name="Eng" horiz-adv-x="1345" unicode="Ŋ"/><glyph d="M762 1075q168 0 285.5 -114.5t117.5 -348.5v-612v-100q0 -158 -87 -239t-238 -81q-84 0 -228 49v299q25 -6 56.5 -15l49 -14t39 -9.5t40.5 -4.5q70 0 69 113v346v248q0 231 -176 231q-104 0 -175 -71.5t-93 -147.5v-604h-299v1065h299v-193q27 63 115 133t225 70z" glyph-name="eng" horiz-adv-x="1267" unicode="ŋ"/><glyph d="M1202 1802v-241h-774v241h774zM815 1448q283 0 503 -209t220 -522.5t-220 -522t-503 -208.5q-178 0 -343 91t-272.5 262t-107.5 378t107.5 378t272.5 262t343 91zM817 1149q-158 0 -270.5 -121t-112.5 -311.5t112.5 -311t270.5 -120.5q168 0 275.5 118.5t107.5 313 t-107.5 313.5t-275.5 119z" glyph-name="Omacron" horiz-adv-x="1630" unicode="Ō"/><glyph d="M1014 1434v-242h-774v242h774zM627 1077q86 0 178 -34.5t176 -99t137 -173t53 -242t-53 -241t-137 -171t-176 -97t-178 -33.5t-178.5 33.5t-176.5 97t-137 171t-53 241t53 242t137 173t176.5 99t178.5 34.5zM626.5 817q-98.5 0 -172 -76.5t-73.5 -212.5 q0 -131 73.5 -206.5t172 -75.5t172 75.5t73.5 206.5q0 135 -73.5 212t-172 77z" glyph-name="omacron" horiz-adv-x="1253" unicode="ō"/><glyph d="M1042 1802l-264 -264h-223l135 264h352zM1470 1802l-264 -264h-223l135 264h352zM815 1448q283 0 503 -209t220 -522.5t-220 -522t-503 -208.5q-178 0 -343 91t-272.5 262t-107.5 378t107.5 378t272.5 262t343 91zM817 1149q-158 0 -270.5 -121t-112.5 -311.5t112.5 -311 t270.5 -120.5q168 0 275.5 118.5t107.5 313t-107.5 313.5t-275.5 119z" glyph-name="Ohungarumlaut" horiz-adv-x="1630" unicode="Ő"/><glyph d="M854 1434l-264 -265h-223l135 265h352zM1282 1434l-264 -265h-223l135 265h352zM627 1077q86 0 178 -34.5t176 -99t137 -173t53 -242t-53 -241t-137 -171t-176 -97t-178 -33.5t-178.5 33.5t-176.5 97t-137 171t-53 241t53 242t137 173t176.5 99t178.5 34.5zM626.5 817 q-98.5 0 -172 -76.5t-73.5 -212.5q0 -131 73.5 -206.5t172 -75.5t172 75.5t73.5 206.5q0 135 -73.5 212t-172 77z" glyph-name="ohungarumlaut" horiz-adv-x="1253" unicode="ő"/><glyph d="M1530 268h665v-268h-981v111q-186 -125 -399 -125q-178 0 -343 91t-272.5 262t-107.5 378t107.5 378t272.5 262t343 91q213 0 399 -125v111h957v-269h-641v-311h440v-268h-440v-318zM817 285q168 0 275.5 118.5t107.5 313t-107.5 313.5t-275.5 119q-158 0 -270.5 -121 t-112.5 -311.5t112.5 -311t270.5 -120.5z" glyph-name="OE" horiz-adv-x="2308" unicode="Œ"/><glyph d="M1933 528q0 -51 -8 -98h-754q20 -88 95 -138t161 -50q106 0 209 65l174 -166q-145 -156 -383 -155q-104 0 -214.5 42t-194.5 124q-80 -80 -186.5 -123t-204.5 -43q-86 0 -178.5 33.5t-176.5 97t-137 171t-53 241t53 242t137 173t176.5 99t178.5 34.5q96 0 201.5 -43 t187.5 -123q78 82 182.5 124t204.5 42q88 0 179 -35.5t171 -101.5t130 -174.5t50 -237.5zM1176 637h458q-20 88 -84.5 136t-142.5 48q-82 0 -146.5 -48t-84.5 -136zM627 246q84 0 153.5 58t87.5 163q-4 41 -4 61q0 23 4 64q-18 106 -86.5 165.5t-154.5 59.5 q-98 0 -172 -76.5t-74 -212.5q0 -131 74 -206.5t172 -75.5z" glyph-name="oe" horiz-adv-x="2015" unicode="œ"/><glyph d="M973 1802l-264 -264h-224l136 264h352zM1251 0h-340l-309 483h-182v-483h-307v1434h510q248 0 387 -130t139 -350q0 -301 -252 -417zM420 1161v-418h184q238 0 238 211q0 207 -238 207h-184z" glyph-name="Racute" horiz-adv-x="1323" unicode="Ŕ"/><glyph d="M829 1434l-264 -265h-223l135 265h352zM772 1075q68 0 100 -8v-279q-35 6 -102 7q-141 0 -247.5 -95.5t-119.5 -242.5v-457h-297v1065h297v-342q18 156 113.5 254t255.5 98z" glyph-name="racute" horiz-adv-x="923" unicode="ŕ"/><glyph d="M897 537l354 -537h-340l-309 483h-182v-483h-307v1434h510q248 0 387 -130t139 -350q0 -300 -252 -417zM420 1161v-418h184q238 0 238 211q0 207 -238 207h-184zM362 -539l105 486h383l-225 -486h-263z" glyph-name="Rcommaaccent" horiz-adv-x="1323" unicode="Ŗ"/><glyph d="M772 1075q68 0 100 -8v-279q-35 6 -102 7q-141 0 -247.5 -95.5t-119.5 -242.5v-457h-297v1065h297v-342q18 156 113.5 254t255.5 98zM-39 -539l105 486h383l-226 -486h-262z" glyph-name="rcommaaccent" horiz-adv-x="923" unicode="ŗ"/><glyph d="M801 1524h-406l-209 278h203l211 -174l209 174h203zM1251 0h-340l-309 483h-182v-483h-307v1434h510q248 0 387 -130t139 -350q0 -301 -252 -417zM420 1161v-418h184q238 0 238 211q0 207 -238 207h-184z" glyph-name="Rcaron" horiz-adv-x="1323" unicode="Ř"/><glyph d="M657 1155h-405l-209 279h203l211 -174l209 174h202zM772 1075q68 0 100 -8v-279q-35 6 -102 7q-141 0 -247.5 -95.5t-119.5 -242.5v-457h-297v1065h297v-342q18 156 113.5 254t255.5 98z" glyph-name="rcaron" horiz-adv-x="923" unicode="ř"/><glyph d="M987 1802l-264 -264h-223l135 264h352zM612 1448q164 0 287 -82t182 -199l-268 -90q-55 109 -201 109q-68 0 -117 -33t-49 -84q0 -57 36 -92t139 -72l51 -16q449 -152 448 -477q0 -141 -86 -241.5t-200.5 -142.5t-239.5 -42q-178 0 -321.5 91t-200.5 245l250 112 q31 -78 106.5 -132t165.5 -54q88 0 152.5 41t64.5 123q0 78 -46 117.5t-177 86.5l-49 19q-190 68 -296 169t-106 265q0 168 140 273.5t335 105.5z" glyph-name="Sacute" horiz-adv-x="1191" unicode="Ś"/><glyph d="M860 1434l-264 -265h-223l135 265h352zM635 743q-53 84 -129 84q-88 0 -88 -67q0 -53 71 -80l132 -47q168 -59 219 -98q104 -74 104 -218q0 -154 -138 -242.5t-310 -88.5q-154 0 -277 76.5t-158 207.5l246 80q20 -51 72.5 -81.5t116.5 -30.5q59 0 96 23.5t37 60.5 q0 57 -82 90l-125 43q-168 61 -242 125.5t-74 187.5q0 141 114 225t274 84q283 0 399 -268z" glyph-name="sacute" horiz-adv-x="1005" unicode="ś"/><glyph d="M1120 412q0 -166 -108.5 -269.5t-270.5 -140.5h7l-107 -113q82 -18 137.5 -73.5t55.5 -130.5q0 -121 -124 -168t-329 -33l33 88q104 16 147 39.5t43 73.5q0 39 -32.5 58t-71.5 -5l-31 -33l-70 125l93 164q-147 25 -260 112t-160 216l250 112q31 -78 106.5 -132t165.5 -54 q88 0 152.5 41t64.5 123q0 78 -46 117.5t-177 86.5l-49 19q-190 68 -296 169t-106 265q0 168 140.5 273.5t334.5 105.5q164 0 287 -82t182 -199l-268 -90q-55 109 -201 109q-68 0 -117 -33t-49 -84q0 -57 36 -92t139 -72l51 -16q448 -151 448 -477z" glyph-name="Scedilla" horiz-adv-x="1191" unicode="Ş"/><glyph d="M944 317q0 -121 -88 -201.5t-221 -113.5h14l-106 -113q82 -18 137 -73.5t55 -130.5q0 -121 -124 -168t-328 -33l32 88q104 16 147.5 39.5t43.5 73.5q0 39 -33 58t-72 -5l-30 -33l-70 125l92 166q-121 23 -212 94.5t-120 179.5l246 80q20 -51 72.5 -81.5t116.5 -30.5 q59 0 96 23.5t37 60.5q0 57 -82 90l-125 43q-168 61 -242 125.5t-74 187.5q0 141 114 225t274 84q283 0 399 -268l-258 -66q-53 84 -129 84q-88 0 -88 -67q0 -53 71 -80l132 -47q168 -59 219 -98q104 -75 104 -218z" glyph-name="scedilla" horiz-adv-x="1005" unicode="ş"/><glyph d="M817 1524h-405l-209 278h203l210 -174l209 174h203zM612 1448q164 0 287 -82t182 -199l-268 -90q-55 109 -201 109q-68 0 -117 -33t-49 -84q0 -57 36 -92t139 -72l51 -16q449 -152 448 -477q0 -141 -86 -241.5t-200.5 -142.5t-239.5 -42q-178 0 -321.5 91t-200.5 245 l250 112q31 -78 106.5 -132t165.5 -54q88 0 152.5 41t64.5 123q0 78 -46 117.5t-177 86.5l-49 19q-190 68 -296 169t-106 265q0 168 140 273.5t335 105.5z" glyph-name="Scaron" horiz-adv-x="1191" unicode="Š"/><glyph d="M688 1155h-405l-209 279h202l211 -174l209 174h203zM635 743q-53 84 -129 84q-88 0 -88 -67q0 -53 71 -80l132 -47q168 -59 219 -98q104 -74 104 -218q0 -154 -138 -242.5t-310 -88.5q-154 0 -277 76.5t-158 207.5l246 80q20 -51 72.5 -81.5t116.5 -30.5q59 0 96 23.5 t37 60.5q0 57 -82 90l-125 43q-168 61 -242 125.5t-74 187.5q0 141 114 225t274 84q283 0 399 -268z" glyph-name="scaron" horiz-adv-x="1005" unicode="š"/><glyph d="M1159 1161h-362v-1161h55l-117 -115q76 -25 126 -79t50 -123q0 -121 -123.5 -168t-328.5 -33l35 88q104 16 147 39.5t43 73.5q0 47 -43 60t-92 -40l-72 125l49 172h-57v1161h-367v273h695h362v-273z" glyph-name="Tcommaaccent" horiz-adv-x="1261" unicode="Ţ"/><glyph d="M727 23q-45 -18 -96 -27l-101 -107q82 -18 137.5 -73.5t55.5 -130.5q0 -121 -124 -168t-329 -33l33 88q104 16 147.5 39.5t43.5 73.5q0 39 -33 58t-72 -5l-31 -33l-69 125l96 172h4q-190 53 -190 344v477h-138v242h138v184h299v-184h225v-242h-225v-475q0 -102 86 -102 q82 0 143 22v-245z" glyph-name="tcommaaccent" horiz-adv-x="794" unicode="ţ"/><glyph d="M831 1524h-405l-209 278h203l211 -174l209 174h202zM1159 1434v-273h-362v-1161h-328v1161h-367v273h695h362z" glyph-name="Tcaron" horiz-adv-x="1261" unicode="Ť"/><glyph d="M702 1432h353l-264 -265h-224zM498 348q0 -102 86 -102q82 0 143 22v-245q-76 -35 -219 -35t-226 75.5t-83 282.5v477h-138v242h138v184h299v-184h225v-242h-225v-475z" glyph-name="tcaron" horiz-adv-x="1099" unicode="ť"/><glyph d="M1159 1161h-362v-129h241v-241h-241v-791h-328v791h-205v241h205v129h-367v273h695h362v-273z" glyph-name="Tbar" horiz-adv-x="1261" unicode="Ŧ"/><glyph d="M584 246q82 0 143 22v-245q-76 -35 -219 -35t-226 75.5t-83 282.5v88h-138v242h138v147h-138v242h138v184h299v-184h225v-242h-225v-147h225v-242h-225v-86q0 -102 86 -102z" glyph-name="tbar" horiz-adv-x="794" unicode="ŧ"/><glyph d="M1081 1802v-241h-774v241h774zM1278 1434v-914q0 -240 -172 -387t-410 -147q-240 0 -411.5 147.5t-171.5 386.5v914h299v-916q0 -139 87 -205.5t197.5 -66.5t196.5 66.5t86 205.5v916h299z" glyph-name="Umacron" horiz-adv-x="1390" unicode="Ū"/><glyph d="M1010 1434v-242h-774v242h774zM846 1065h299v-1065h-299v215q-20 -76 -114.5 -152.5t-235.5 -76.5q-170 0 -282 109.5t-112 353.5v616h299v-616q0 -207 172 -207q98 0 183.5 98t89.5 168v557z" glyph-name="umacron" horiz-adv-x="1257" unicode="ū"/><glyph d="M1022 1802q0 -121 -82 -209t-246 -88q-147 0 -238 91.5t-91 205.5h180q8 -39 48 -67.5t101.5 -28.5t100.5 28.5t47 67.5h180zM1278 1434v-914q0 -240 -172 -387t-410 -147q-240 0 -411.5 147.5t-171.5 386.5v914h299v-916q0 -139 87 -205.5t197.5 -66.5t196.5 66.5 t86 205.5v916h299z" glyph-name="Ubreve" horiz-adv-x="1390" unicode="Ŭ"/><glyph d="M623 1137q-147 0 -238.5 91t-91.5 206h180q8 -39 48 -68t101.5 -29t100.5 29t47 68h180q0 -121 -81.5 -209t-245.5 -88zM846 1065h299v-1065h-299v215q-20 -76 -114.5 -152.5t-235.5 -76.5q-170 0 -282 109.5t-112 353.5v616h299v-616q0 -207 172 -207q98 0 183.5 98 t89.5 168v557z" glyph-name="ubreve" horiz-adv-x="1257" unicode="ŭ"/><glyph d="M696 2025q94 0 163 -69.5t69 -165.5q0 -92 -68.5 -160.5t-163.5 -68.5q-98 0 -167.5 68.5t-69.5 160.5q0 98 69.5 166.5t167.5 68.5zM692 1847q-23 0 -37 -15t-14 -38q0 -20 15.5 -34.5t36 -14.5t36.5 14.5t16 34.5q0 23 -16.5 38t-36.5 15zM1278 1434v-914 q0 -240 -172 -387t-410 -147q-240 0 -411.5 147.5t-171.5 386.5v914h299v-916q0 -139 87 -205.5t197.5 -66.5t196.5 66.5t86 205.5v916h299z" glyph-name="Uring" horiz-adv-x="1390" unicode="Ů"/><glyph d="M623 1192q-98 0 -168 68.5t-70 160.5q0 98 69.5 167t168.5 69q94 0 162.5 -69.5t68.5 -166.5q0 -92 -68.5 -160.5t-162.5 -68.5zM618 1479q-23 0 -37 -15.5t-14 -38.5q0 -20 15.5 -34.5t36 -14.5t37 14.5t16.5 34.5q0 23 -17 38.5t-37 15.5zM846 1065h299v-1065h-299v215 q-20 -76 -114.5 -152.5t-235.5 -76.5q-170 0 -282 109.5t-112 353.5v616h299v-616q0 -207 172 -207q98 0 183.5 98t89.5 168v557z" glyph-name="uring" horiz-adv-x="1257" unicode="ů"/><glyph d="M922 1802l-265 -264h-223l135 264h353zM1350 1802l-265 -264h-223l135 264h353zM1278 1434v-914q0 -240 -172 -387t-410 -147q-240 0 -411.5 147.5t-171.5 386.5v914h299v-916q0 -139 87 -205.5t197.5 -66.5t196.5 66.5t86 205.5v916h299z" glyph-name="Uhungarumlaut" horiz-adv-x="1390" unicode="Ű"/><glyph d="M850 1434l-264 -265h-224l136 265h352zM1014 1169h-223l135 265h352zM846 508v557h299v-1065h-299v215q-20 -76 -114.5 -152.5t-235.5 -76.5q-170 0 -282 109.5t-112 353.5v616h299v-616q0 -207 172 -207q98 0 183.5 98t89.5 168z" glyph-name="uhungarumlaut" horiz-adv-x="1257" unicode="ű"/><glyph d="M979 1434h299v-914q0 -203 -126 -341t-318 -179q-156 -57 -213.5 -96t-57.5 -88q0 -63 56.5 -90t103.5 2l65 -134q-51 -29 -137 -32.5t-169 16t-143 74.5t-60 133q0 96 75.5 150.5t200.5 64.5h2q-193 41 -318.5 179t-125.5 341v914h299v-916q0 -139 87 -205.5 t197.5 -66.5t196.5 66.5t86 205.5v916z" glyph-name="Uogonek" horiz-adv-x="1390" unicode="Ų"/><glyph d="M893 -184q0 -63 57.5 -90t104.5 2l63 -134q-51 -29 -136 -32.5t-168 16t-143.5 74.5t-60.5 133q0 94 72 149.5t184 65.5h-20v215q-20 -76 -114.5 -152.5t-235.5 -76.5q-170 0 -282 109.5t-112 353.5v616h299v-616q0 -207 172 -207q98 0 183.5 98t89.5 168v557h299v-1065 h20q-158 -57 -215 -96t-57 -88z" glyph-name="uogonek" horiz-adv-x="1288" unicode="ų"/><glyph d="M1300 1802l211 -278h-202l-209 174l-211 -174h-203l209 278h405zM2126 1434l-553 -1434h-76l-397 856l-402 -856h-75l-551 1434h327l291 -791l365 791h88l366 -791l287 791h330z" glyph-name="Wcircumflex" horiz-adv-x="2197" unicode="Ŵ"/><glyph d="M981 1434l211 -279h-203l-209 174l-211 -174h-202l208 279h406zM1516 1065l-443 -1065h-8l-285 567l-284 -567h-9l-442 1065h291l196 -494l242 494h12l242 -494l197 494h291z" glyph-name="wcircumflex" horiz-adv-x="1560" unicode="ŵ"/><glyph d="M956 1802l211 -278h-202l-209 174l-211 -174h-203l209 278h405zM1450 1434l-545 -842v-592h-299v592l-545 842h340l355 -574l354 574h340z" glyph-name="Ycircumflex" horiz-adv-x="1511" unicode="Ŷ"/><glyph d="M635 1329l-211 -174h-203l209 279h406l211 -279h-203zM915 1065h293l-590 -1454h-290l168 418l-451 1036h295l297 -686z" glyph-name="ycircumflex" horiz-adv-x="1253" unicode="ŷ"/><glyph d="M645 1802v-243h-305v243h305zM1174 1802v-243h-306v243h306zM1450 1434l-545 -842v-592h-299v592l-545 842h340l355 -574l354 574h340z" glyph-name="Ydieresis" horiz-adv-x="1511" unicode="Ÿ"/><glyph d="M977 1802l-264 -264h-224l136 264h352zM1210 1434l-663 -1178h672v-256h-1147l663 1178h-626v256h1101z" glyph-name="Zacute" horiz-adv-x="1290" unicode="Ź"/><glyph d="M922 1434l-265 -265h-223l135 265h353zM1030 1065l-508 -809h457v-256h-928l502 809h-475v256h952z" glyph-name="zacute" horiz-adv-x="1081" unicode="ź"/><glyph d="M758 1802v-243h-305v243h305zM1210 1434l-663 -1178h672v-256h-1147l663 1178h-626v256h1101z" glyph-name="Zdotaccent" horiz-adv-x="1290" unicode="Ż"/><glyph d="M700 1434v-244h-305v244h305zM1030 1065l-508 -809h457v-256h-928l502 809h-475v256h952z" glyph-name="zdotaccent" horiz-adv-x="1081" unicode="ż"/><glyph d="M805 1524h-406l-209 278h203l211 -174l209 174h203zM1210 1434l-663 -1178h672v-256h-1147l663 1178h-626v256h1101z" glyph-name="Zcaron" horiz-adv-x="1290" unicode="Ž"/><glyph d="M750 1155h-406l-209 279h203l211 -174l209 174h203zM1030 1065l-508 -809h457v-256h-928l502 809h-475v256h952z" glyph-name="zcaron" horiz-adv-x="1081" unicode="ž"/><glyph d="M598 1169q-74 0 -100.5 -25.5t-28.5 -78.5h129v-256h-129v-815q0 -383 -428 -383v256q27 0 47.5 4t34.5 9t23.5 18.5t14.5 20.5t7 29.5t2 32v39v39.5v750h-119v256h119q12 360 428 360v-256z" glyph-name="florin" horiz-adv-x="649" unicode="ƒ"/><glyph d="M965 1524h-406l-209 278h203l211 -174l209 174h203zM1139 0l-88 205h-574l-90 -205h-336l707 1450h12l705 -1450h-336zM584 451h358l-178 407z" glyph-name="uni01CD" horiz-adv-x="1525" unicode="Ǎ"/><glyph d="M860 1155h-405l-209 279h203l210 -174l209 174h203zM848 1065h299v-1065h-299v133q-4 -41 -84 -94t-191 -53q-188 0 -344.5 145t-156.5 404q0 129 46 235.5t120.5 172t161.5 100t173 34.5q117 0 195 -46t80 -85v119zM625 242q102 0 169.5 71.5t67.5 221t-67.5 218 t-169.5 68.5q-100 0 -177 -79.5t-77 -206.5q0 -131 77 -212t177 -81z" glyph-name="uni01CE" unicode="ǎ"/><glyph d="M475 1524h-405l-209 278h202l211 -174l209 174h203zM436 1434v-1434h-313v1434h313z" glyph-name="uni01CF" horiz-adv-x="559" unicode="Ǐ"/><glyph d="M504 1155h-406l-209 279h203l211 -174l209 174h203zM453 1065v-1065h-299v1065h299z" glyph-name="uni01D0" horiz-adv-x="606" unicode="ǐ"/><glyph d="M1016 1524h-406l-209 278h203l211 -174l209 174h203zM815 1448q283 0 503 -209t220 -522.5t-220 -522t-503 -208.5q-178 0 -343 91t-272.5 262t-107.5 378t107.5 378t272.5 262t343 91zM817 1149q-158 0 -270.5 -121t-112.5 -311.5t112.5 -311t270.5 -120.5 q168 0 275.5 118.5t107.5 313t-107.5 313.5t-275.5 119z" glyph-name="uni01D1" horiz-adv-x="1630" unicode="Ǒ"/><glyph d="M827 1155h-405l-209 279h203l211 -174l209 174h202zM627 1077q86 0 178 -34.5t176 -99t137 -173t53 -242t-53 -241t-137 -171t-176 -97t-178 -33.5t-178.5 33.5t-176.5 97t-137 171t-53 241t53 242t137 173t176.5 99t178.5 34.5zM626.5 817q-98.5 0 -172 -76.5 t-73.5 -212.5q0 -131 73.5 -206.5t172 -75.5t172 75.5t73.5 206.5q0 135 -73.5 212t-172 77z" glyph-name="uni01D2" horiz-adv-x="1253" unicode="ǒ"/><glyph d="M897 1524h-405l-209 278h202l211 -174l209 174h203zM1278 1434v-914q0 -240 -172 -387t-410 -147q-240 0 -411.5 147.5t-171.5 386.5v914h299v-916q0 -139 87 -205.5t197.5 -66.5t196.5 66.5t86 205.5v916h299z" glyph-name="uni01D3" horiz-adv-x="1390" unicode="Ǔ"/><glyph d="M823 1155h-405l-209 279h203l211 -174l208 174h203zM846 1065h299v-1065h-299v215q-20 -76 -114.5 -152.5t-235.5 -76.5q-170 0 -282 109.5t-112 353.5v616h299v-616q0 -207 172 -207q98 0 183.5 98t89.5 168v557z" glyph-name="uni01D4" horiz-adv-x="1257" unicode="ǔ"/><glyph d="M934 -4q-150 -57 -205 -94t-55 -86q0 -63 56 -90t104 2l65 -134q-51 -29 -137 -32.5t-169 16t-143.5 74.5t-60.5 133q0 96 76 150.5t201 64.5h14q-242 49 -415 246.5t-173 470.5q0 207 107.5 378t272.5 262t343 91q283 0 503 -209t220 -522q0 -279 -177 -477.5 t-427 -243.5zM434 716.5q0 -190.5 112.5 -311t270.5 -120.5q168 0 275.5 118.5t107.5 313t-107.5 313.5t-275.5 119q-158 0 -270.5 -121t-112.5 -311.5z" glyph-name="uni01EA" horiz-adv-x="1630" unicode="Ǫ"/><glyph d="M715 -6q-145 -55 -199.5 -92t-54.5 -86q0 -63 57 -90t105 2l63 -134q-51 -29 -136 -32.5t-169 16t-144.5 74.5t-60.5 133q0 96 76 150.5t201 64.5h57q-172 41 -300 177t-128 351q0 133 53 242t137 173.5t176.5 99t178.5 34.5t178 -34.5t176 -99t137 -173t53 -242.5 q0 -223 -138 -362t-318 -172zM381 528q0 -131 73.5 -206.5t172 -75.5t172 75.5t73.5 206.5q0 135 -73.5 212t-172 77t-172 -77t-73.5 -212z" glyph-name="uni01EB" horiz-adv-x="1253" unicode="ǫ"/><glyph d="M612 1448q164 0 287 -82t182 -199l-268 -90q-55 109 -201 109q-68 0 -117 -33t-49 -84q0 -57 36 -92t139 -72l51 -16q449 -152 448 -477q0 -141 -86 -241.5t-200.5 -142.5t-239.5 -42q-178 0 -321.5 91t-200.5 245l250 112q31 -78 106.5 -132t165.5 -54q88 0 152.5 41 t64.5 123q0 78 -46 117.5t-177 86.5l-49 19q-190 68 -296 169t-106 265q0 168 140 273.5t335 105.5zM328 -539l104 486h383l-225 -486h-262z" glyph-name="Scommaaccent" horiz-adv-x="1191" unicode="Ș"/><glyph d="M635 743q-53 84 -129 84q-88 0 -88 -67q0 -53 71 -80l132 -47q168 -59 219 -98q104 -74 104 -218q0 -154 -138 -242.5t-310 -88.5q-154 0 -277 76.5t-158 207.5l246 80q20 -51 72.5 -81.5t116.5 -30.5q59 0 96 23.5t37 60.5q0 57 -82 90l-125 43q-168 61 -242 125.5 t-74 187.5q0 141 114 225t274 84q283 0 399 -268zM229 -539l105 486h383l-225 -486h-263z" glyph-name="scommaaccent" horiz-adv-x="1005" unicode="ș"/><glyph d="M1159 1434v-273h-362v-1161h-328v1161h-367v273h1057zM348 -539l105 486h383l-226 -486h-262z" glyph-name="uni021A" horiz-adv-x="1261" unicode="Ț"/><glyph d="M584 246q82 0 143 22v-245q-76 -35 -219 -35t-226 75.5t-83 282.5v477h-138v242h138v184h299v-184h225v-242h-225v-475q0 -102 86 -102zM219 -539l105 486h383l-226 -486h-262z" glyph-name="uni021B" horiz-adv-x="794" unicode="ț"/><glyph d="M403 1065v-1165q0 -158 -87 -239t-238 -81q-84 0 -225 49v299q23 -6 55.5 -15t49.5 -14t38.5 -9.5t38.5 -4.5q70 0 69 113v1067h299z" glyph-name="uni0237" horiz-adv-x="567" unicode="ȷ"/><glyph d="M614 1434l211 -279h-202l-209 174l-211 -174h-203l209 279h405z" glyph-name="circumflex" horiz-adv-x="825" unicode="ˆ"/><glyph d="M614 1155h-405l-209 279h203l211 -174l209 174h202z" glyph-name="caron" horiz-adv-x="825" unicode="ˇ"/><glyph d="M657 1434q0 -121 -81.5 -209t-245.5 -88q-147 0 -238.5 91t-91.5 206h180q8 -39 48 -68t101.5 -29t100.5 29t47 68h180z" glyph-name="breve" horiz-adv-x="657" unicode="˘"/><glyph d="M311 1434v-244h-305v244h305z" glyph-name="dotaccent" horiz-adv-x="317" unicode="˙"/><glyph d="M238 1657q94 0 162.5 -69.5t68.5 -166.5q0 -92 -68.5 -160.5t-162.5 -68.5q-98 0 -168 68.5t-70 160.5q0 98 70 167t168 69zM233 1479q-23 0 -37 -15.5t-14 -38.5q0 -20 15.5 -34.5t36 -14.5t37 14.5t16.5 34.5q0 23 -17 38.5t-37 15.5z" glyph-name="ring" horiz-adv-x="468" unicode="˚"/><glyph d="M555 0q-156 -57 -213 -96t-57 -88q0 -63 56 -90t103 2l66 -134q-51 -29 -137 -32.5t-169 16t-143.5 74.5t-60.5 133q0 96 76 150.5t200 64.5h279z" glyph-name="ogonek" horiz-adv-x="555" unicode="˛"/><glyph d="M250 1534q78 0 203 -71.5t172 -71.5q31 0 59.5 12t28.5 31h110q0 -117 -63.5 -196t-179.5 -79q-78 0 -208 83t-182 83q-29 0 -56.5 -18.5t-24.5 -44.5h-109q0 117 63.5 194.5t186.5 77.5z" glyph-name="tilde" horiz-adv-x="823" unicode="˜"/><glyph d="M487 1434l-264 -265h-223l135 265h352zM915 1434l-264 -265h-223l135 265h352z" glyph-name="hungarumlaut" horiz-adv-x="929" unicode="˝"/><glyph d="M-539 -440l105 485h383l-225 -485h-263z" glyph-name="uni0326" horiz-adv-x="0" unicode="̦"/><glyph d="M782 1434l617 -1434h-1297l617 1434h63zM752 954l-277 -698h551z" glyph-name="Delta" horiz-adv-x="1501" unicode="Δ"/><glyph d="M1534 727q0 -244 -162 -442h111v-285h-484v336l62 49q168 137 168 342q0 199 -118 311.5t-288 112.5t-285.5 -112.5t-115.5 -311.5q0 -209 164 -342l61 -49v-336h-483v285h110q-162 199 -161 442q0 205 105.5 374t267 258t337.5 89t338 -89t267.5 -258t105.5 -374z" glyph-name="Omega" horiz-adv-x="1646" unicode="Ω"/><glyph d="M846 1065h299v-1065h-299v215q-20 -76 -114.5 -152.5t-235.5 -76.5q-53 0 -95 8v-383h-299v1454h299v-616q0 -207 172 -207q98 0 183.5 98t89.5 168v557z" glyph-name="mu" horiz-adv-x="1257" unicode="μ"/><glyph d="M1282 244q66 0 139 37v-256q-74 -37 -237 -37q-104 0 -195.5 50t-91.5 155v616h-291v-809h-299v809h-205v256h1297v-256h-203v-453q0 -68 19.5 -90t66.5 -22z" glyph-name="pi" horiz-adv-x="1513" unicode="π"/><glyph d="M498 1802v-243h-305v243h305zM1026 1802v-243h-305v243h305zM428 268h666v-268h-981v1434h956v-269h-641v-311h440v-268h-440v-318z" glyph-name="afii10023" horiz-adv-x="1206" unicode="Ё"/><glyph d="M977 1802l-264 -264h-224l136 264h352zM1073 1434v-256h-661v-1178h-299v1434h299h661z" glyph-name="afii10052" horiz-adv-x="1165" unicode="Ѓ"/><glyph d="M1110 397l186 -227q-201 -184 -481 -184q-279 0 -501 208.5t-222 518.5q0 209 106.5 381t271.5 263t345 91q283 0 477 -178l-188 -228q-125 106 -283 107q-131 0 -233.5 -85t-138.5 -218h202v-256h-205q37 -135 139.5 -220t235.5 -85q148 -1 289 112z" glyph-name="afii10053" horiz-adv-x="1368" unicode="Є"/><glyph d="M436 1434v-1434h-313v1434h313z" glyph-name="afii10055" horiz-adv-x="559" unicode="І"/><glyph d="M164 1802v-243h-305v243h305zM692 1802v-243h-305v243h305zM436 1434v-1434h-313v1434h313z" glyph-name="afii10056" horiz-adv-x="559" unicode="Ї"/><glyph d="M1139 0l-88 205h-574l-90 -205h-336l707 1450h12l705 -1450h-336zM584 451h358l-178 407z" glyph-name="afii10017" horiz-adv-x="1525" unicode="А"/><glyph d="M623 950q248 0 387 -127t139 -344q0 -219 -139.5 -349t-386.5 -130h-510v1434h307h586v-256h-586v-228h203zM604 272q238 0 238 207q0 211 -238 211h-184v-418h184z" glyph-name="afii10018" horiz-adv-x="1230" unicode="Б"/><glyph d="M915 795q117 -31 205 -131.5t88 -235.5q0 -203 -130 -315.5t-382 -112.5h-583v1434h549q205 0 322.5 -103.5t117.5 -247.5q0 -98 -55.5 -177.5t-131.5 -110.5zM418 881h252q66 0 100.5 48t34.5 109q0 59 -37 97.5t-100 38.5h-250v-293zM686 260q223 0 223 191 q0 94 -60.5 147t-174.5 53h-256v-391h268z" glyph-name="afii10019" horiz-adv-x="1300" unicode="В"/><glyph d="M1073 1434v-256h-661v-1178h-299v1434h299h661z" glyph-name="afii10020" horiz-adv-x="1165" unicode="Г"/><glyph d="M1810 256v-397h-299v141h-1120v-141h-299v397h223q33 92 50.5 245.5t19.5 276.5t2 369v287h299h723h150v-1178h251zM612 256h648v922h-574v-31q0 -246 -2 -369t-19.5 -276.5t-52.5 -245.5z" glyph-name="afii10021" horiz-adv-x="1902" unicode="Д"/><glyph d="M428 268h666v-268h-981v1434h956v-269h-641v-311h440v-268h-440v-318z" glyph-name="afii10022" horiz-adv-x="1206" unicode="Е"/><glyph d="M1892 729l629 -729h-362l-441 514l-268 -326v-188h-309v188l-269 326l-440 -514h-360l628 729l-561 705h363l639 -813v813h309v-813l641 813h360z" glyph-name="afii10024" horiz-adv-x="2592" unicode="Ж"/><glyph d="M627 1448q193 0 335 -121t142 -285q0 -121 -75 -201.5t-165 -99.5q94 6 203 -85t109 -228q0 -199 -162 -323.5t-387 -124.5q-231 0 -388 125.5t-157 306.5l315 2q0 -55 26 -94t65.5 -55.5t73.5 -22.5t65 -6q233 0 233 192q0 78 -63.5 125t-231.5 51v244q86 6 133 16 t67.5 36t24 46.5t3.5 71.5v24q0 68 -61.5 109t-104.5 41q-184 0 -185 -170l-315 2q0 188 145.5 306t354.5 118z" glyph-name="afii10025" horiz-adv-x="1257" unicode="З"/><glyph d="M113 1434h307v-781l854 793h6v-1446h-307v780l-850 -792h-10v1446z" glyph-name="afii10026" horiz-adv-x="1392" unicode="И"/><glyph d="M1004 1802q0 -121 -82 -209t-246 -88q-147 0 -238.5 91.5t-91.5 205.5h180q8 -39 48 -67.5t101.5 -28.5t100.5 28.5t47 67.5h181zM113 1434h307v-781l854 793h6v-1446h-307v780l-850 -792h-10v1446z" glyph-name="afii10027" horiz-adv-x="1392" unicode="Й"/><glyph d="M1454 1434l-559 -705l627 -729h-361l-440 514l-268 -326v-188h-310v1434h310v-813l641 813h360z" glyph-name="afii10028" horiz-adv-x="1593" unicode="К"/><glyph d="M1491 1434v-1434h-299v1178h-639v-830q0 -211 -82 -285.5t-233 -74.5q-135 0 -209 37v256q70 -35 139 -35q43 0 64.5 34.5t21.5 67.5v1086h1237z" glyph-name="afii10029" horiz-adv-x="1603" unicode="Л"/><glyph d="M1614 1434v-1434h-307v737l-312 -737h-258l-307 735v-735h-307v1434h295l450 -1006l451 1006h295z" glyph-name="afii10030" horiz-adv-x="1736" unicode="М"/><glyph d="M1067 1434h307v-1434h-307v584h-623v-584h-307v1434h307v-586h623v586z" glyph-name="afii10031" horiz-adv-x="1511" unicode="Н"/><glyph d="M815 1448q283 0 503 -209t220 -522.5t-220 -522t-503 -208.5q-178 0 -343 91t-272.5 262t-107.5 378t107.5 378t272.5 262t343 91zM817 1149q-158 0 -270.5 -121t-112.5 -311.5t112.5 -311t270.5 -120.5q168 0 275.5 118.5t107.5 313t-107.5 313.5t-275.5 119z" glyph-name="afii10032" horiz-adv-x="1630" unicode="О"/><glyph d="M1350 1434v-1434h-299v1178h-639v-1178h-299v1434h299h938z" glyph-name="afii10033" horiz-adv-x="1462" unicode="П"/><glyph d="M623 1434q248 0 387 -130t139 -350q0 -217 -139.5 -344t-386.5 -127h-203v-483h-307v1434h510zM604 743q238 0 238 211q0 207 -238 207h-184v-418h184z" glyph-name="afii10034" horiz-adv-x="1220" unicode="Р"/><glyph d="M815 1448q283 0 477 -178l-188 -228q-125 106 -283 107q-162 0 -276.5 -127t-114.5 -305q0 -180 113.5 -306t277.5 -126q147 0 289 112l186 -227q-201 -184 -481 -184q-279 0 -501 208.5t-222 518.5q0 209 106.5 381t271.5 263t345 91z" glyph-name="afii10035" horiz-adv-x="1368" unicode="С"/><glyph d="M1159 1434v-273h-362v-1161h-328v1161h-367v273h695h362z" glyph-name="afii10036" horiz-adv-x="1261" unicode="Т"/><glyph d="M1096 1434h331l-780 -1434h-330l263 481l-519 953h332l352 -648z" glyph-name="afii10037" horiz-adv-x="1488" unicode="У"/><glyph d="M1780 716.5q0 -239.5 -201 -402t-506 -179.5v-135h-299v135q-303 18 -502.5 181t-199.5 400.5t199.5 400.5t502.5 181v136h299v-136q305 -16 506 -179t201 -402.5zM1073 391q225 14 316.5 111.5t91.5 214.5t-91.5 214t-316.5 111v-651zM371 717q0 -51 17.5 -99.5 t58 -99.5t125.5 -85t202 -42v651q-117 -8 -202 -41.5t-125.5 -85t-58 -99.5t-17.5 -99z" glyph-name="afii10038" horiz-adv-x="1871" unicode="Ф"/><glyph d="M1413 0h-354l-307 459l-306 -459h-354l481 725l-475 709h355l297 -443l292 443h355l-469 -709z" glyph-name="afii10039" horiz-adv-x="1505" unicode="Х"/><glyph d="M1624 256v-397h-297v141h-190h-725h-299v1434h299v-1178h639v1178h299v-1178h274z" glyph-name="afii10040" horiz-adv-x="1716" unicode="Ц"/><glyph d="M915 1434h299v-1434h-299v590q-23 -57 -113.5 -113.5t-215.5 -56.5q-221 0 -347 109.5t-126 347.5v557h299v-557q0 -111 67.5 -156t163.5 -45q55 0 101.5 17.5t82 56t49 57t39.5 61.5v566z" glyph-name="afii10041" horiz-adv-x="1316" unicode="Ч"/><glyph d="M1989 1434h299v-1434h-299h-785h-153h-785h-153v1434h299v-1178h639v1178h299v-1178h639v1178z" glyph-name="afii10042" horiz-adv-x="2400" unicode="Ш"/><glyph d="M2562 256v-397h-297v141h-188h-727h-150h-788h-299v1434h299v-1178h639v1178h299v-1178h639v1178h299v-1178h274z" glyph-name="afii10043" horiz-adv-x="2654" unicode="Щ"/><glyph d="M870 950q248 0 387.5 -127t139.5 -344q0 -219 -139.5 -349t-387.5 -130h-510v1178h-278v256h358h228v-484h202zM852 272q238 0 238 207q0 211 -238 211h-184v-418h184z" glyph-name="afii10044" horiz-adv-x="1488" unicode="Ъ"/><glyph d="M623 0h-510v1434h307v-484h203q248 0 387 -127t139 -344q0 -219 -139 -349t-387 -130zM1706 1434v-1434h-315v1434h315zM604 690h-184v-418h184q238 0 238 207q0 211 -238 211z" glyph-name="afii10045" horiz-adv-x="1828" unicode="Ы"/><glyph d="M623 0h-510v1434h307v-484h203q248 0 387 -127t139 -344q0 -219 -139 -349t-387 -130zM604 690h-184v-418h184q238 0 238 207q0 211 -238 211z" glyph-name="afii10046" horiz-adv-x="1220" unicode="Ь"/><glyph d="M573 1448q180 0 345 -91t271.5 -263t106.5 -381q0 -309 -222 -518t-501 -209q-281 0 -481 184l187 227q141 -113 288 -112q133 0 235.5 85t139.5 220h-205v256h203q-37 133 -139.5 218t-233.5 85q-158 0 -282 -107l-189 228q194 178 477 178z" glyph-name="afii10047" horiz-adv-x="1368" unicode="Э"/><glyph d="M1217 1448q283 0 502.5 -209t219.5 -522.5t-220 -522t-502 -208.5q-246 0 -456 170t-257 434h-68v-590h-313v1434h313v-588h70q47 264 256 433t455 169zM1219 285q168 0 275.5 118.5t107.5 313t-108 313.5t-275 119q-158 0 -270.5 -121t-112.5 -311.5t112.5 -311 t270.5 -120.5z" glyph-name="afii10048" horiz-adv-x="2031" unicode="Ю"/><glyph d="M700 1434h510v-1434h-307v483h-182l-309 -483h-340l352 537q-250 117 -250 417q0 219 139 349.5t387 130.5zM903 743v418h-184q-238 0 -238 -207q0 -211 238 -211h184z" glyph-name="afii10049" horiz-adv-x="1323" unicode="Я"/><glyph d="M848 1065h299v-1065h-299v133q-4 -41 -84 -94t-191 -53q-188 0 -344.5 145t-156.5 404q0 129 46 235.5t120.5 172t161.5 100t173 34.5q117 0 195 -46t80 -85v119zM625 242q102 0 169.5 71.5t67.5 221t-67.5 218t-169.5 68.5q-100 0 -177 -79.5t-77 -206.5q0 -131 77 -212 t177 -81z" glyph-name="afii10065" unicode="а"/><glyph d="M676 1077q86 0 173 -34.5t161.5 -100t121 -172t46.5 -235.5q0 -133 -46.5 -242t-121 -173.5t-161.5 -99t-173 -34.5q-111 0 -189.5 52t-85.5 93v-131h-299v1065q0 369 428 369h123q104 0 158 41h289q-76 -139 -171 -218t-231 -79h-168q-86 0 -107.5 -25t-21.5 -88v-119 q2 39 81 85t194 46zM625 242q100 0 177 80.5t77 212.5q0 127 -77 206.5t-177 79.5q-102 0 -170 -68.5t-68 -218t68 -221t170 -71.5z" glyph-name="afii10066" horiz-adv-x="1249" unicode="б"/><glyph d="M940 592q217 -88 217 -270q0 -166 -132 -244t-347 -78h-287h-278v1065h299h266q174 0 285.5 -75t111.5 -212q0 -141 -135 -186zM678 825h-266v-127h266q18 0 33.5 2t24.5 6.5t17.5 10.5t12.5 11t6 11t3 11.5t1 9.5t-2 6v2q13 57 -96 57zM678 240q82 0 124 18t49 36.5 t7 47.5q0 104 -180 104h-266v-206h266z" glyph-name="afii10067" horiz-adv-x="1249" unicode="в"/><glyph d="M1006 1065v-256h-594v-809h-299v1065h299h594z" glyph-name="afii10068" horiz-adv-x="1107" unicode="г"/><glyph d="M1364 256h92v-365h-299v109h-766v-109h-299v365h133q41 57 60.5 159.5t22.5 186.5t3 258v205h299h713h41v-809zM520 256h545v553h-455q0 -221 -16.5 -348t-73.5 -205z" glyph-name="afii10069" horiz-adv-x="1548" unicode="д"/><glyph d="M610 1077q88 0 179.5 -35.5t171 -101.5t130 -174.5t50.5 -237.5q0 -51 -8 -98h-754q20 -88 95 -138t161 -50q106 0 209 65l174 -166q-145 -156 -383 -155q-92 0 -188.5 33.5t-181.5 97t-139 171t-54 241t51 242t132 173t173 99t182 34.5zM614 821q-82 0 -146.5 -48 t-84.5 -136h459q-20 88 -85 136t-143 48z" glyph-name="afii10070" horiz-adv-x="1222" unicode="е"/><glyph d="M1851 0h-387l-315 332l-43 -45v-287h-299v287l-43 45l-315 -332h-388l512 530l-507 535h385l356 -373v373h299v-373l356 373h385l-508 -535z" glyph-name="afii10072" horiz-adv-x="1912" unicode="ж"/><glyph d="M565 1075q172 0 303 -88t131 -209q0 -51 -19 -89t-61 -62.5t-65 -33.5t-70 -24q264 -20 265 -243q0 -154 -144.5 -247t-339.5 -93q-205 0 -339 102t-134 266h299q0 -45 54.5 -80.5t121.5 -35.5q182 0 183 100q0 113 -201 111v229q145 4 145 84q0 31 -40 47t-89 16 q-51 0 -89 -19.5t-38 -47.5h-299q0 135 122 226t304 91z" glyph-name="afii10073" horiz-adv-x="1140" unicode="з"/><glyph d="M1163 1065v-1065h-299v518l-708 -518h-43v1065h299v-518l708 518h43z" glyph-name="afii10074" horiz-adv-x="1275" unicode="и"/><glyph d="M967 1434q0 -121 -82 -209t-246 -88q-147 0 -238.5 91t-91.5 206h180q8 -39 48.5 -68t101.5 -29t100 29t47 68h181zM1163 1065v-1065h-299v518l-708 -518h-43v1065h299v-518l708 518h43z" glyph-name="afii10075" horiz-adv-x="1275" unicode="й"/><glyph d="M1167 0h-387l-313 334l-45 -47v-287h-299v1065h299v-373l356 373h385l-510 -535z" glyph-name="afii10076" horiz-adv-x="1239" unicode="к"/><glyph d="M1346 1065v-1065h-299v809h-494v-461q0 -211 -82 -285.5t-233 -74.5q-135 0 -209 37v256q70 -35 139 -35q43 0 64.5 34.5t21.5 67.5v717h299h793z" glyph-name="afii10077" horiz-adv-x="1458" unicode="л"/><glyph d="M1450 1065v-1065h-299v367l-328 -367h-73l-328 367v-367h-299v1065h55l608 -653l609 653h55z" glyph-name="afii10078" horiz-adv-x="1572" unicode="м"/><glyph d="M813 1065h299v-1065h-299v406h-397v-406h-299v1065h299v-403h397v403z" glyph-name="afii10079" horiz-adv-x="1228" unicode="н"/><glyph d="M627 1077q86 0 178 -34.5t176 -99t137 -173t53 -242t-53 -241t-137 -171t-176 -97t-178 -33.5t-178.5 33.5t-176.5 97t-137 171t-53 241t53 242t137 173t176.5 99t178.5 34.5zM626.5 817q-98.5 0 -172 -76.5t-73.5 -212.5q0 -131 73.5 -206.5t172 -75.5t172 75.5 t73.5 206.5q0 135 -73.5 212t-172 77z" glyph-name="afii10080" horiz-adv-x="1253" unicode="о"/><glyph d="M1165 1065v-1065h-299v809h-454v-809h-299v1065h299h753z" glyph-name="afii10081" horiz-adv-x="1277" unicode="п"/><glyph d="M676 1077q86 0 173 -34.5t161.5 -100t121 -172t46.5 -235.5q0 -133 -46.5 -242t-121 -173.5t-161.5 -99t-173 -34.5q-102 0 -178 45t-92 88v-508h-300v389h-4v1065h299v-119q2 39 81 85t194 46zM625 242q100 0 177 80.5t77 212.5q0 127 -77 206.5t-177 79.5 q-102 0 -170 -68.5t-68 -218t68 -221t170 -71.5z" glyph-name="afii10082" horiz-adv-x="1249" unicode="р"/><glyph d="M631 1077q131 0 246.5 -61.5t191.5 -184.5l-240 -108q-70 98 -198 98q-98 0 -176 -78.5t-78 -212.5q0 -131 77.5 -209.5t176.5 -78.5q129 0 198 98l242 -109q-76 -123 -192.5 -184t-247.5 -61q-72 0 -146.5 20.5t-147.5 65.5t-129 107.5t-91 153.5t-35 197q0 133 52 241 t135 172.5t177.5 99t184.5 34.5z" glyph-name="afii10083" horiz-adv-x="1126" unicode="с"/><glyph d="M963 1065v-256h-281v-809h-299v809h-281v256h580h281z" glyph-name="afii10084" horiz-adv-x="1064" unicode="т"/><glyph d="M891 1065h293l-590 -1454h-291l168 416l-451 1038h295l297 -686z" glyph-name="afii10085" horiz-adv-x="1228" unicode="у"/><glyph d="M1415 1077q86 0 173 -34.5t162 -100t121 -172t46 -235.5q0 -133 -46 -242t-121 -173.5t-162 -99t-173 -34.5q-98 0 -172 42t-96 85v-113h-2v-389h-299v389h-4v98q-23 -41 -95.5 -75.5t-173.5 -34.5q-86 0 -173 34.5t-161.5 100t-120.5 172t-46 235.5q0 133 46 242 t120.5 173.5t161.5 99t173 34.5q98 0 172 -42t97 -85v113h4v389h299v-389h2v-98q23 41 95.5 75.5t172.5 34.5zM625 244q164 0 217 149v275q-55 156 -217 155q-100 0 -177 -80.5t-77 -212.5q0 -127 77 -206.5t177 -79.5zM1364 242q100 0 177 80.5t77 212.5q0 127 -77 206.5 t-177 79.5q-164 0 -217 -149v-275q55 -155 217 -155z" glyph-name="afii10086" horiz-adv-x="1988" unicode="ф"/><glyph d="M881 0l-242 344l-242 -344h-336l412 547l-371 518h330l207 -315l205 315h330l-371 -518l411 -547h-333z" glyph-name="afii10087" horiz-adv-x="1275" unicode="х"/><glyph d="M1165 256h127v-397h-297v141h-137h-606h-139v1065h299v-809h454v809h299v-809z" glyph-name="afii10088" horiz-adv-x="1384" unicode="ц"/><glyph d="M852 1065h299v-1065h-299v457l-12 -19q-12 -20 -21.5 -32.5t-28 -36t-40 -39t-49 -31.5t-62.5 -24.5t-74 -8.5q-190 0 -326.5 130t-136.5 341v328h299v-330q0 -207 166 -207q109 0 174.5 60.5t110.5 175.5v301z" glyph-name="afii10089" horiz-adv-x="1253" unicode="ч"/><glyph d="M1616 1065v-1065h-1503v1065h299v-809h303v809h299v-809h303v809h299z" glyph-name="afii10090" horiz-adv-x="1728" unicode="ш"/><glyph d="M1616 256h123v-397h-297v141h-1329v1065h299v-809h303v809h299v-809h303v809h299v-809z" glyph-name="afii10091" horiz-adv-x="1830" unicode="щ"/><glyph d="M911 627q182 0 300 -89t118 -233q0 -137 -116.5 -221t-301.5 -84h-637v809h-161v256h235h225v-438h338zM909 256q57 0 86 8t32 16.5t3 24.5q0 18 -3 28.5t-31.5 24t-86.5 13.5h-336v-115h336z" glyph-name="afii10092" horiz-adv-x="1411" unicode="ъ"/><glyph d="M750 627q182 0 299.5 -89t117.5 -233q0 -137 -116.5 -221t-300.5 -84h-637v1065h299v-438h338zM1307 1065h299v-1065h-299v1065zM748 256q57 0 85.5 8t31.5 16.5t3 24.5q0 18 -3 28.5t-31.5 24t-85.5 13.5h-336v-115h336z" glyph-name="afii10093" horiz-adv-x="1728" unicode="ы"/><glyph d="M750 627q182 0 299.5 -89t117.5 -233q0 -137 -116.5 -221t-300.5 -84h-637v1065h299v-438h338zM748 256q57 0 85.5 8t31.5 16.5t3 24.5q0 18 -3 28.5t-31.5 24t-85.5 13.5h-336v-115h336z" glyph-name="afii10094" unicode="ь"/><glyph d="M524 1077q90 0 183.5 -34.5t176.5 -99t135 -172t52 -241.5q0 -131 -52 -239.5t-135 -172t-176.5 -98t-183.5 -34.5q-133 0 -249.5 61.5t-192.5 183.5l242 109q70 -98 198 -98q66 0 126.5 38.5t94.5 106.5h-157v272h166q-33 76 -96.5 119t-133.5 43q-129 0 -198 -98 l-238 108q74 123 190.5 184.5t247.5 61.5z" glyph-name="afii10095" horiz-adv-x="1126" unicode="э"/><glyph d="M1100 1077q86 0 178 -34.5t176 -99t137.5 -173t53.5 -242t-53.5 -241t-137.5 -171t-176 -97t-178 -33.5q-162 0 -320.5 105.5t-208.5 295.5h-149v-387h-299v1065h299v-406h147q31 133 124 231.5t199 142.5t208 44zM1099.5 246q98.5 0 172.5 75.5t74 206.5q0 135 -74 212 t-172.5 77t-172 -76.5t-73.5 -212.5q0 -131 73.5 -206.5t172 -75.5z" glyph-name="afii10096" horiz-adv-x="1742" unicode="ю"/><glyph d="M1210 1065v-1065h-299v291h-209l-266 -291h-364l323 336q-113 51 -182.5 147.5t-69.5 210.5q0 160 136.5 265.5t326.5 105.5h604zM911 547v262h-303q-76 0 -121 -32t-45 -83q0 -55 47.5 -101t118.5 -46h303z" glyph-name="afii10097" horiz-adv-x="1323" unicode="я"/><glyph d="M500 1434v-244h-305v244h305zM1028 1434v-244h-305v244h305zM610 1077q88 0 179.5 -35.5t171 -101.5t130 -174.5t50.5 -237.5q0 -51 -8 -98h-754q20 -88 95 -138t161 -50q106 0 209 65l174 -166q-145 -156 -383 -155q-92 0 -188.5 33.5t-181.5 97t-139 171t-54 241 t51 242t132 173t173 99t182 34.5zM614 821q-82 0 -146.5 -48t-84.5 -136h459q-20 88 -85 136t-143 48z" glyph-name="afii10071" horiz-adv-x="1222" unicode="ё"/><glyph d="M922 1434l-265 -265h-223l135 265h353zM1006 1065v-256h-594v-809h-299v1065h299h594z" glyph-name="afii10100" horiz-adv-x="1107" unicode="ѓ"/><glyph d="M829 340l242 -109q-76 -123 -192.5 -184t-247.5 -61q-72 0 -146.5 20.5t-147.5 65.5t-129 107.5t-91 153.5t-35 197q0 133 52 241t135 172.5t177.5 99t184.5 34.5q131 0 246.5 -61.5t191.5 -184.5l-240 -108q-70 98 -198 98q-70 0 -133.5 -43t-96.5 -119h166v-272h-157 q35 -68 95 -106.5t126 -38.5q128 0 198 98z" glyph-name="afii10101" horiz-adv-x="1126" unicode="є"/><glyph d="M193 1434v-244h-306v244h306zM721 1434v-244h-305v244h305zM453 1065v-1065h-299v1065h299z" glyph-name="afii10104" horiz-adv-x="606" unicode="ї"/><glyph d="M1073 1530v-352h-661v-1178h-299v1434h655v96h305z" glyph-name="afii10050" horiz-adv-x="1165" unicode="Ґ"/><glyph d="M1028 1159v-186h-22v-164h-594v-809h-299v1065h299h311v94h305z" glyph-name="afii10098" horiz-adv-x="1130" unicode="ґ"/><glyph d="M743 1802h353l135 -264h-223zM2126 1434l-553 -1434h-76l-397 856l-402 -856h-75l-551 1434h327l291 -791l365 791h88l366 -791l287 791h330z" glyph-name="Wgrave" horiz-adv-x="2197" unicode="Ẁ"/><glyph d="M424 1434h352l135 -265h-223zM1516 1065l-443 -1065h-8l-285 567l-284 -567h-9l-442 1065h291l196 -494l242 494h12l242 -494l197 494h291z" glyph-name="wgrave" horiz-adv-x="1560" unicode="ẁ"/><glyph d="M1473 1802l-265 -264h-223l135 264h353zM2126 1434l-553 -1434h-76l-397 856l-402 -856h-75l-551 1434h327l291 -791l365 791h88l366 -791l287 791h330z" glyph-name="Wacute" horiz-adv-x="2197" unicode="Ẃ"/><glyph d="M1153 1434l-264 -265h-223l135 265h352zM1516 1065l-443 -1065h-8l-285 567l-284 -567h-9l-442 1065h291l196 -494l242 494h12l242 -494l197 494h291z" glyph-name="wacute" horiz-adv-x="1560" unicode="ẃ"/><glyph d="M987 1802v-243h-305v243h305zM1516 1802v-243h-306v243h306zM2126 1434l-553 -1434h-76l-397 856l-402 -856h-75l-551 1434h327l291 -791l365 791h88l366 -791l287 791h330z" glyph-name="Wdieresis" horiz-adv-x="2197" unicode="Ẅ"/><glyph d="M670 1434v-244h-305v244h305zM1198 1434v-244h-305v244h305zM1516 1065l-443 -1065h-8l-285 567l-284 -567h-9l-442 1065h291l196 -494l242 494h12l242 -494l197 494h291z" glyph-name="wdieresis" horiz-adv-x="1560" unicode="ẅ"/><glyph d="M399 1802h353l135 -264h-223zM1450 1434l-545 -842v-592h-299v592l-545 842h340l355 -574l354 574h340z" glyph-name="Ygrave" horiz-adv-x="1511" unicode="Ỳ"/><glyph d="M766 1169h-223l-264 265h352zM915 1065h293l-590 -1454h-290l168 418l-451 1036h295l297 -686z" glyph-name="ygrave" horiz-adv-x="1253" unicode="ỳ"/><glyph d="M1137 684v-246h-1045v246h1045z" glyph-name="endash" horiz-adv-x="1228" unicode="–"/><glyph d="M1260 684v-246h-1168v246h1168z" glyph-name="emdash" horiz-adv-x="1351" unicode="—"/><glyph d="M539 1434l-105 -502h-383l225 502h263z" glyph-name="quoteleft" horiz-adv-x="569" unicode="‘"/><glyph d="M51 932l105 502h383l-226 -502h-262z" glyph-name="quoteright" horiz-adv-x="589" unicode="’"/><glyph d="M31 -276l104 501h383l-225 -501h-262z" glyph-name="quotesinglbase" horiz-adv-x="677" unicode="‚"/><glyph d="M539 1434l-105 -502h-383l225 502h263zM1071 1434l-104 -502h-383l225 502h262z" glyph-name="quotedblleft" horiz-adv-x="1101" unicode="“"/><glyph d="M51 932l105 502h383l-226 -502h-262zM582 932l104 502h383l-225 -502h-262z" glyph-name="quotedblright" horiz-adv-x="1120" unicode="”"/><glyph d="M31 -276l104 501h383l-225 -501h-262zM565 -276l105 501h383l-226 -501h-262z" glyph-name="quotedblbase" horiz-adv-x="1212" unicode="„"/><glyph d="M696 1157v-256h-233l-43 -262h-49l-43 262h-236v256h193l-47 277h315l-47 -277h190z" glyph-name="dagger" horiz-adv-x="788" unicode="†"/><glyph d="M451 901l-9 -53h-114l-9 53h-237v256h192l-47 277h316l-47 -277h190v-256h-235zM801 352h-412l-4 -18l-2 18h-418l29 90h377l-58 406h15l14 -82h86l14 82h17l-58 -406h371zM315 -166l70 500l72 -500h-142z" glyph-name="daggerdbl" horiz-adv-x="768" unicode="‡"/><glyph d="M408 784v-315h-316v315h316z" glyph-name="bullet" horiz-adv-x="499" unicode="•"/><glyph d="M412 324v-324h-330v324h330zM918 324v-324h-330v324h330zM1423 324v-324h-329v324h329z" glyph-name="ellipsis" horiz-adv-x="1505" unicode="…"/><glyph d="M325.5 1444q106.5 0 180.5 -73t74 -179.5t-74 -179t-180.5 -72.5t-180 72.5t-73.5 179t73.5 179.5t180 73zM1014 1440l237 -150l-866 -1290l-238 147zM325.5 1223q-30.5 0 -30.5 -31t30.5 -31t30.5 31t-30.5 31zM1103.5 494q106.5 0 180.5 -73t74 -179.5t-74 -179 t-180.5 -72.5t-180 72.5t-73.5 179t73.5 179.5t180 73zM1769.5 494q106.5 0 180 -73t73.5 -179.5t-73.5 -179t-180 -72.5t-180 72.5t-73.5 179t73.5 179.5t180 73zM1104 272q-31 0 -31 -30.5t31 -30.5t31 30.5t-31 30.5zM1769.5 272q-30.5 0 -30.5 -30.5t30.5 -30.5 t30.5 30.5t-30.5 30.5z" glyph-name="perthousand" horiz-adv-x="2095" unicode="‰"/><glyph d="M188 807l279 209v-203l-174 -209l174 -211v-203l-279 211v406z" glyph-name="guilsinglleft" horiz-adv-x="440" unicode="‹"/><glyph d="M252 940v-405l-279 -209v202l174 211l-174 209v203z" glyph-name="guilsinglright" horiz-adv-x="407" unicode="›"/><glyph d="M590 1434l-881 -1434h-98l893 1434h86z" glyph-name="fraction" horiz-adv-x="221" unicode="⁄"/><glyph d="M1202 397l187 -227q-201 -184 -482 -184q-201 0 -383 115.5t-272 308.5h-180v225h116q-4 49 -4 78q0 39 2 59h-114v225h170q86 205 272 328t393 123q283 0 477 -178l-188 -228q-125 106 -283 107q-178 0 -297 -152h123v-225h-213q-4 -37 -4 -55q0 -41 6 -82h211v-225 h-102q115 -125 276 -125q148 -1 289 112z" glyph-name="Euro" horiz-adv-x="1460" unicode="€"/><glyph d="M1223 772h-248q-98 -82 -260 -137h508v-225h-234l193 -88q-57 -154 -200.5 -245t-322.5 -91q-199 0 -361.5 109.5t-164.5 314.5h-61v225h125q53 80 139 137h-264v225h716q18 27 19 72q0 51 -49 84t-117 33q-145 0 -201 -109l-268 90q61 117 184 199t285 82 q195 0 335 -105.5t140 -273.5q0 -37 -6 -72h113v-225zM920 410h-478q2 -82 65.5 -122t151.5 -40q84 0 155 46t106 116z" glyph-name="uni20B4" horiz-adv-x="1292" unicode="₴"/><glyph d="M483 1434v-95h-118v-274h-113v274h-119v95h350zM1065 1434v-369h-107v149l-127 -149h-40l-129 149v-149h-107v369h61l193 -236l192 236h64z" glyph-name="trademark" horiz-adv-x="1198" unicode="™"/><glyph d="M205 1436v-535h-76v453l-35 -23l-37 64l72 41h76zM1030 1434l-880 -1434h-99l893 1434h86zM899 539q74 0 118 -41t44 -97q0 -70 -62 -108q88 -43 88 -135q0 -70 -55 -116t-133 -46q-76 0 -131 46t-55 116q0 92 88 135q-61 39 -62 108q0 53 44 95.5t116 42.5zM899 475 q-41 0 -62.5 -21.5t-21.5 -52t25.5 -55t58.5 -24.5q35 0 59.5 23.5t24.5 55.5q0 74 -84 74zM899 258q-45 0 -78 -28.5t-33 -71.5q0 -41 33 -70t78 -29q49 0 80 27t31 72t-31 72.5t-80 27.5z" glyph-name="oneeighth" horiz-adv-x="1138" unicode="⅛"/><glyph d="M238 1440q66 0 114.5 -43t48.5 -97q0 -66 -61 -108q86 -37 86 -135q0 -70 -56.5 -117t-131.5 -47q-86 0 -140.5 55.5t-46.5 130.5h78q-14 -47 20.5 -84t88.5 -37q45 0 77.5 28t32.5 71q0 57 -41 80.5t-110 7.5v65q129 12 129 90q0 31 -26 53.5t-62 22.5q-45 0 -73 -32.5 t-20 -86.5h-79q-8 76 43 129.5t129 53.5zM1071 1434l-881 -1434h-98l893 1434h86zM936 539q74 0 118 -41t44 -97q0 -70 -62 -108q88 -43 88 -135q0 -70 -55 -116t-133 -46q-76 0 -131 46t-55 116q0 92 88 135q-61 39 -62 108q0 53 44 95.5t116 42.5zM936 475 q-41 0 -62.5 -21.5t-21.5 -52t25.5 -55t58.5 -24.5q35 0 59.5 23.5t24.5 55.5q0 74 -84 74zM936 258q-45 0 -78 -28.5t-33 -71.5q0 -41 33 -70t78 -29q49 0 80 27t31 72t-31 72.5t-80 27.5z" glyph-name="threeeighths" horiz-adv-x="1175" unicode="⅜"/><glyph d="M381 1436v-66h-213l-16 -119q45 20 92 21q72 0 129 -54.5t57 -134t-57.5 -135t-136.5 -55.5q-68 0 -120.5 38t-64.5 89l68 39q4 -41 35.5 -71t81.5 -30q47 0 81.5 36t34.5 89q0 51 -33.5 87t-74.5 36q-72 0 -117 -59l-66 16l37 273h283zM1071 1434l-881 -1434h-98 l893 1434h86zM940 539q74 0 118 -41t44 -97q0 -70 -62 -108q88 -43 88 -135q0 -70 -55 -116t-133 -46q-76 0 -131 46t-55 116q0 92 88 135q-61 39 -62 108q0 53 44 95.5t116 42.5zM940 475q-41 0 -62.5 -21.5t-21.5 -52t25.5 -55t58.5 -24.5q35 0 59.5 23.5t24.5 55.5 q0 74 -84 74zM940 258q-45 0 -78 -28.5t-33 -71.5q0 -41 33 -70t78 -29q49 0 80 27t31 72t-31 72.5t-80 27.5z" glyph-name="fiveeighths" horiz-adv-x="1179" unicode="⅝"/><glyph d="M410 1436l-209 -535h-80l182 469h-248v66h355zM1030 1434l-880 -1434h-99l893 1434h86zM899 539q74 0 118 -41t44 -97q0 -70 -62 -108q88 -43 88 -135q0 -70 -55 -116t-133 -46q-76 0 -131 46t-55 116q0 92 88 135q-61 39 -62 108q0 53 44 95.5t116 42.5zM899 475 q-41 0 -62.5 -21.5t-21.5 -52t25.5 -55t58.5 -24.5q35 0 59.5 23.5t24.5 55.5q0 74 -84 74zM899 258q-45 0 -78 -28.5t-33 -71.5q0 -41 33 -70t78 -29q49 0 80 27t31 72t-31 72.5t-80 27.5z" glyph-name="seveneighths" horiz-adv-x="1138" unicode="⅞"/><glyph d="M160 1434h329l324 -465q4 -6 58.5 -81t69.5 -102.5t49 -93t46.5 -127t12.5 -129.5q0 -195 -149.5 -325.5t-336.5 -130.5q-188 0 -334.5 130t-146.5 326q0 180 147.5 326.5t315.5 146.5v2q-23 10 -35 35zM565 637q-88 0 -144 -63.5t-56 -137.5q0 -86 55 -141t143 -55 q92 0 149.5 55t57.5 141q0 76 -55.5 138.5t-149.5 62.5z" glyph-name="partialdiff" horiz-adv-x="1130" unicode="∂"/><glyph d="M92 1638h1340v-2027h-289v1761h-762v-1761h-289v2027z" glyph-name="product" horiz-adv-x="1523" unicode="∏"/><glyph d="M1333 1638v-264h-770l412 -749l-412 -750h770v-264h-1241l563 1014l-563 1013h1241z" glyph-name="summation" horiz-adv-x="1425" unicode="∑"/><glyph d="M778 684v-246h-686v246h686z" glyph-name="minus" horiz-adv-x="870" unicode="−"/><glyph d="M1645 1638l-568 -2027h-346l-385 868h-254v332h451l344 -815l463 1642h295z" glyph-name="radical" horiz-adv-x="1736" unicode="√"/><glyph d="M1260 879q156 0 272.5 -102.5t116.5 -239.5q0 -141 -117 -245t-272 -104q-199 0 -390 166q-186 -166 -387 -166q-158 0 -274.5 103.5t-116.5 245.5q0 137 118 239.5t273 102.5q199 0 387 -164q193 164 390 164zM487 414q47 0 64.5 1t47.5 12t53.5 36.5t58.5 73.5 q-66 88 -104 105t-120 17q-55 0 -87.5 -38.5t-32.5 -83.5q0 -47 32.5 -85t87.5 -38zM1253 414q55 0 88 37.5t33 85.5q0 45 -32.5 83.5t-88.5 38.5q-82 0 -119.5 -17t-103.5 -105q66 -88 102.5 -105.5t120.5 -17.5z" glyph-name="infinity" horiz-adv-x="1740" unicode="∞"/><glyph d="M598 1638v-256q-27 0 -47.5 -4t-34.5 -9t-23.5 -18.5t-14.5 -20.5t-7 -29.5t-2 -31.5v-39v-40v-1196q0 -383 -428 -383v256q27 0 47.5 4t34.5 9t23.5 18.5t14.5 20.5t7 29.5t2 32v39v39.5v1196q0 383 428 383z" glyph-name="integral" horiz-adv-x="649" unicode="∫"/><glyph d="M365 911q88 0 223 -71.5t192 -71.5q45 0 77 12.5t32 30.5h110q0 -117 -67.5 -194.5t-196.5 -77.5q-88 0 -228 81.5t-202 81.5q-41 0 -72.5 -17t-29.5 -44h-109q0 117 68 193.5t203 76.5zM365 584q88 0 223 -72t192 -72q45 0 77 12.5t32 30.5h110q0 -117 -67.5 -194.5 t-196.5 -77.5q-88 0 -228 82t-202 82q-41 0 -72.5 -17.5t-29.5 -44.5h-109q0 117 68 194t203 77z" glyph-name="approxequal" horiz-adv-x="1091" unicode="≈"/><glyph d="M784 1149l-116 -301h110v-246h-207l-30 -82h237v-246h-334l-106 -274h-252l107 274h-101v246h197l30 82h-227v246h324l116 301h252z" glyph-name="notequal" horiz-adv-x="870" unicode="≠"/><glyph d="M795 1214v-249l-359 -197l359 -195v-251l-705 405v84zM793 250v-246h-687v246h687z" glyph-name="lessequal" horiz-adv-x="851" unicode="≤"/><glyph d="M94 1214l703 -403v-84l-703 -405v251l359 195l-359 197v249zM94 250h686v-246h-686v246z" glyph-name="greaterequal" horiz-adv-x="888" unicode="≥"/><glyph d="M831 1434l318 -717l-318 -717h-303h-118l-318 717l318 717h303h118zM621 209l225 508l-225 508l-226 -508z" glyph-name="lozenge" horiz-adv-x="1241" unicode="◊"/><glyph d="M457 1434v-244h-305v244h305zM453 1065v-1065h-299v1065h299z" glyph-name="i.aalt" horiz-adv-x="606"/><glyph d="M1292 246q102 0 172 35v-256q-74 -37 -241 -37q-127 0 -205 75.5t-78 284.5v475h-319h-146v-823h-299v823h-135v242h135v29q0 90 26.5 157.5t65.5 104.5t93.5 58.5t96.5 27.5t87 6q145 0 276 -66l-96 -206q-78 29 -160 28q-92 0 -90 -110v-7v-22h238h227v184h299v-184 h223v-242h-223v-475q0 -29 16.5 -65.5t36.5 -36.5z" glyph-name="f_t.dlig" horiz-adv-x="1536"/><glyph d="M1370 246q102 0 172 35v-256q-74 -37 -242 -37q-129 0 -205.5 75.5t-76.5 284.5v475h-377h-143v-475q0 -102 86 -102q82 0 143 22v-245q-76 -35 -219 -35t-226 75.5t-83 282.5v477h-138v242h138v184h299v-184h225h295v184h299v-184h223v-242h-223v-475q0 -29 16.5 -65.5 t36.5 -36.5z" glyph-name="t_t.dlig" horiz-adv-x="1613"/><glyph d="M733 1448q262 0 442.5 -184.5t180.5 -520.5v-53q0 -172 -51.5 -309t-138.5 -222t-197.5 -129t-235.5 -44q-260 0 -441 184t-181 520v53q0 336 182 520.5t440 184.5zM733 1192q-76 0 -135 -29.5t-93 -75t-56.5 -106.5t-30.5 -118.5t-8 -119.5v-53q0 -61 8 -118.5 t30.5 -120t56.5 -107.5t93 -73.5t135 -28.5t135.5 28.5t93 73.5t56 107.5t31 120t8.5 118.5v53q0 61 -8.5 119t-31 119t-56 106.5t-93 75t-135.5 29.5z" glyph-name="zero.tnum" horiz-adv-x="1433"/><glyph d="M858 1434v-1434h-299v1178h-242v256h541z" glyph-name="one.tnum" horiz-adv-x="1433"/><glyph d="M705 1448q217 0 356 -140.5t139 -314.5q0 -145 -63.5 -260t-270.5 -338l-125 -135h459v-260h-995v80l338 397q254 299 291 350q61 90 61 166q0 109 -60.5 151t-129.5 42q-63 0 -121 -43t-58 -137v-39h-305v39q0 168 134.5 305t349.5 137z" glyph-name="two.tnum" horiz-adv-x="1433"/><glyph d="M428 412q88 -176 262 -176q39 0 75 9t75 32.5t62.5 76t23.5 125.5q0 129 -112 205t-284 16l236 478h-504v256h944l-276 -519q115 -23 205 -150.5t90 -285.5q0 -229 -159 -364t-376 -135q-170 0 -309 85t-197 222z" glyph-name="three.tnum" horiz-adv-x="1433"/><glyph d="M1106 1434v-822h154v-256h-154v-356h-299v356h-623v256l623 822h299zM807 989l-297 -377h297v377z" glyph-name="four.tnum" horiz-adv-x="1433"/><glyph d="M1073 1434v-256h-498l-22 -217q2 -6 7 -6.5t16.5 3t24.5 6.5t40 6t55 3q211 0 360.5 -141.5t149.5 -358.5q0 -211 -148.5 -352t-355.5 -141q-195 0 -312.5 76.5t-192.5 215.5l235 119q14 -6 35.5 -33.5t44.5 -53t73 -47t117 -21.5q59 0 132 57t73 180q0 135 -73.5 191.5 t-157.5 56.5q-92 0 -178 -64l-265 72l91 705h749z" glyph-name="five.tnum" horiz-adv-x="1433"/><glyph d="M1104 1434l-350 -488q-10 -25 -35 -37q170 0 316.5 -146.5t146.5 -326.5q0 -197 -146.5 -326.5t-335.5 -129.5q-186 0 -335.5 131t-149.5 325q0 68 13.5 130.5t45 125t51 95t67.5 99t59 83.5l325 465h328zM700 637q-94 0 -150 -62.5t-56 -138.5q0 -86 57 -141t149 -55 q88 0 143.5 55t55.5 141q0 74 -56.5 137.5t-142.5 63.5z" glyph-name="six.tnum" horiz-adv-x="1433"/><glyph d="M1204 1434l-553 -1434h-315l455 1178h-519v256h932z" glyph-name="seven.tnum" horiz-adv-x="1433"/><glyph d="M1024 819q98 -47 160.5 -146.5t62.5 -219.5q0 -207 -159.5 -337t-356 -130t-356.5 130t-160 337q0 121 62.5 220t160.5 146q-125 113 -125 254q0 156 116 265.5t302.5 109.5t302 -109.5t115.5 -265.5q0 -141 -125 -254zM606 1057q0 -53 36 -94t89 -41t89 41t36 94 q0 55 -37 92t-88 37t-88 -37t-37 -92zM731 254q82 0 140.5 56.5t58.5 142.5q0 100 -62.5 156.5t-136.5 56.5t-136.5 -56.5t-62.5 -156.5q0 -86 58.5 -142.5t140.5 -56.5z" glyph-name="eight.tnum" horiz-adv-x="1433"/><glyph d="M313 -2l351 487q12 25 34 37q-168 0 -315 146.5t-147 326.5q0 197 146 327t335 130q186 0 335.5 -131t149.5 -326q0 -68 -12 -129t-46 -126.5t-49.5 -93.5t-69.5 -102.5t-58 -80.5l-324 -465h-330zM719 795q94 0 149.5 62.5t55.5 137.5q0 86 -57.5 141.5t-149.5 55.5 q-88 0 -143.5 -55.5t-55.5 -141.5q0 -74 56.5 -137t144.5 -63z" glyph-name="nine.tnum" horiz-adv-x="1433"/><glyph d="M266 539q96 0 155.5 -72t59.5 -186v-27q0 -115 -59.5 -186.5t-155.5 -71.5q-92 0 -153.5 71.5t-61.5 186.5v27q0 115 61.5 186.5t153.5 71.5zM266 475q-59 0 -99 -52t-40 -142v-27q0 -90 40 -142.5t99 -52.5q63 0 101.5 51.5t38.5 143.5v27q0 92 -38.5 143t-101.5 51z " glyph-name="zero.dnom" horiz-adv-x="532"/><glyph d="M199 535v-535h-76v453l-35 -23l-37 64l72 41h76z" glyph-name="one.dnom" horiz-adv-x="249"/><glyph d="M223 541q70 0 121 -46t51 -108q0 -53 -29.5 -96t-109.5 -125l-96 -100h241v-66h-344v66l140 141q57 59 74.5 78.5t31.5 46t14 55.5q0 37 -28.5 63.5t-65.5 26.5q-39 0 -67.5 -26.5t-28.5 -75.5v-29h-76v29q0 72 50 119t122 47z" glyph-name="two.dnom" horiz-adv-x="452"/><glyph d="M238 539q66 0 114.5 -43t48.5 -97q0 -66 -61 -108q86 -37 86 -135q0 -70 -56.5 -117t-131.5 -47q-86 0 -140.5 55t-46.5 131h78q-14 -47 20.5 -84t88.5 -37q45 0 77.5 28t32.5 71q0 57 -41 80.5t-110 7.5v65q129 12 129 90q0 31 -26 53.5t-62 22.5q-45 0 -73 -32.5 t-20 -86.5h-79q-8 76 43 129.5t129 53.5z" glyph-name="three.dnom" horiz-adv-x="477"/><glyph d="M397 535v-316h56v-63h-56v-156h-75v156h-271l271 379h75zM322 414l-134 -195h134v195z" glyph-name="four.dnom" horiz-adv-x="503"/><glyph d="M381 535v-66h-213l-16 -119q45 20 92 21q72 0 129 -54.5t57 -134.5t-57.5 -135t-136.5 -55q-68 0 -120.5 38t-64.5 89l68 39q4 -41 35.5 -71t81.5 -30q47 0 81.5 36t34.5 89q0 51 -33.5 87t-74.5 36q-72 0 -117 -59l-66 16l37 273h283z" glyph-name="five.dnom" horiz-adv-x="481"/><glyph d="M356 535l-139 -197h12q70 0 123.5 -51t53.5 -121q0 -72 -53.5 -123t-123 -51t-124 51t-54.5 123q0 33 11.5 64.5t20.5 47t36.5 51.5t34.5 44l116 162h86zM229 272q-45 0 -73.5 -28.5t-28.5 -77.5q0 -47 31.5 -78t70.5 -31q37 0 69 31t32 78t-31 76.5t-70 29.5z" glyph-name="six.dnom" horiz-adv-x="456"/><glyph d="M406 535l-209 -535h-80l182 469h-248v66h355z" glyph-name="seven.dnom" horiz-adv-x="456"/><glyph d="M238 539q74 0 117.5 -41t43.5 -97q0 -70 -61 -108q88 -43 88 -135q0 -70 -55.5 -116t-132.5 -46q-76 0 -131.5 46t-55.5 116q0 92 88 135q-61 39 -61 108q0 53 44 95.5t116 42.5zM238 475q-41 0 -62.5 -21.5t-21.5 -52t25.5 -55t58.5 -24.5q37 0 60.5 23.5t23.5 55.5 q0 74 -84 74zM238 258q-45 0 -78 -28.5t-33 -71.5q0 -41 33 -70t78 -29q49 0 79.5 27t30.5 72t-30.5 72.5t-79.5 27.5z" glyph-name="eight.dnom" horiz-adv-x="477"/><glyph d="M229.5 541q69.5 0 124 -50.5t54.5 -121.5q0 -27 -5.5 -49.5t-18.5 -46t-21.5 -37t-30 -40t-29.5 -36.5l-115 -160h-88l140 195h-11q-72 0 -125 52t-53 122q0 72 54.5 122t124 50zM229 475q-39 0 -70.5 -30.5t-31.5 -75.5q0 -47 31.5 -78t70.5 -31q45 0 73 29.5t28 79.5 q0 45 -32 75.5t-69 30.5z" glyph-name="nine.dnom" horiz-adv-x="458"/><glyph d="M266 1440q96 0 155.5 -72t59.5 -186v-27q0 -115 -59.5 -186.5t-155.5 -71.5q-92 0 -153.5 71.5t-61.5 186.5v27q0 115 61.5 186.5t153.5 71.5zM266 1376q-59 0 -99 -52t-40 -142v-27q0 -90 40 -142t99 -52q63 0 101.5 51t38.5 143v27q0 92 -38.5 143t-101.5 51z" glyph-name="zero.numr" horiz-adv-x="532"/><glyph d="M199 1436v-535h-76v453l-35 -23l-37 64l72 41h76z" glyph-name="one.numr" horiz-adv-x="249"/><glyph d="M223 1442q70 0 121 -46t51 -108q0 -53 -29.5 -96t-109.5 -125l-96 -100h241v-66h-344v66l140 141q57 59 74.5 78.5t31.5 46.5t14 55q0 37 -28.5 63.5t-65.5 26.5q-39 0 -67.5 -26.5t-28.5 -75.5v-29h-76v29q0 72 50 119t122 47z" glyph-name="two.numr" horiz-adv-x="452"/><glyph d="M238 1440q66 0 114.5 -43t48.5 -97q0 -66 -61 -108q86 -37 86 -135q0 -70 -56.5 -117t-131.5 -47q-86 0 -140.5 55.5t-46.5 130.5h78q-14 -47 20.5 -84t88.5 -37q45 0 77.5 28t32.5 71q0 57 -41 80.5t-110 7.5v65q129 12 129 90q0 31 -26 53.5t-62 22.5q-45 0 -73 -32.5 t-20 -86.5h-79q-8 76 43 129.5t129 53.5z" glyph-name="three.numr" horiz-adv-x="477"/><glyph d="M397 1436v-316h56v-63h-56v-156h-75v156h-271l271 379h75zM322 1315l-134 -195h134v195z" glyph-name="four.numr" horiz-adv-x="503"/><glyph d="M381 1436v-66h-213l-16 -119q45 20 92 21q72 0 129 -54.5t57 -134t-57.5 -135t-136.5 -55.5q-68 0 -120.5 38t-64.5 89l68 39q4 -41 35.5 -71t81.5 -30q47 0 81.5 36t34.5 89q0 51 -33.5 87t-74.5 36q-72 0 -117 -59l-66 16l37 273h283z" glyph-name="five.numr" horiz-adv-x="481"/><glyph d="M356 1436l-139 -197h12q70 0 123.5 -51t53.5 -121q0 -72 -53.5 -123t-123 -51t-124 51t-54.5 123q0 33 11.5 64.5t20.5 47t36.5 51.5t34.5 44l116 162h86zM229 1174q-45 0 -73.5 -29t-28.5 -78q0 -47 31.5 -78t70.5 -31q37 0 69 31t32 78t-31 77t-70 30z" glyph-name="six.numr" horiz-adv-x="456"/><glyph d="M406 1436l-209 -535h-80l182 469h-248v66h355z" glyph-name="seven.numr" horiz-adv-x="456"/><glyph d="M238 1440q74 0 117.5 -41t43.5 -96q0 -70 -61 -109q88 -43 88 -135q0 -70 -55.5 -116t-132.5 -46q-76 0 -131.5 46t-55.5 116q0 92 88 135q-61 39 -61 109q0 53 44 95t116 42zM238 1376q-41 0 -62.5 -21.5t-21.5 -52t25.5 -55t58.5 -24.5q37 0 60.5 23.5t23.5 56.5 q0 73 -84 73zM238 1159q-45 0 -78 -28.5t-33 -71.5q0 -41 33 -69.5t78 -28.5q49 0 79.5 26.5t30.5 71.5t-30.5 72.5t-79.5 27.5z" glyph-name="eight.numr" horiz-adv-x="477"/><glyph d="M229.5 1442q69.5 0 124 -50.5t54.5 -121.5q0 -27 -5.5 -49.5t-18.5 -46t-21.5 -37t-30 -40t-29.5 -36.5l-115 -160h-88l140 195h-11q-72 0 -125 52t-53 122q0 72 54.5 122t124 50zM229 1376q-39 0 -70.5 -30.5t-31.5 -75.5q0 -47 31.5 -78t70.5 -31q45 0 73 30t28 79 q0 45 -32 75.5t-69 30.5z" glyph-name="nine.numr" horiz-adv-x="458"/></font>
</defs>
</svg>
